<svg xmlns="http://www.w3.org/2000/svg" xmlns:xlink="http://www.w3.org/1999/xlink" width="226" height="41" viewBox="0 0 226 41">
  <defs>
    <clipPath id="clip-path">
      <rect id="Rectangle_1201" data-name="Rectangle 1201" width="226" height="41" transform="translate(670 4104)" fill="none"/>
    </clipPath>
  </defs>
  <g id="access-forbidden" transform="translate(-670 -4104)">
    <g id="Mask_Group_1" data-name="Mask Group 1" clip-path="url(#clip-path)">
      <g id="Group_856" data-name="Group 856" transform="translate(86.028 3882.629) rotate(30)">
        <path id="Path_522" data-name="Path 522" d="M704.616,4391.387v190.539" transform="translate(-82 -4491.461)" fill="none" stroke="#dae0ed" stroke-width="1"/>
        <path id="Path_522-2" data-name="Path 522" d="M704.616,4391.387v190.539" transform="translate(-72 -4491.461)" fill="none" stroke="#dae0ed" stroke-width="1"/>
        <path id="Path_522-3" data-name="Path 522" d="M704.616,4391.387v190.539" transform="translate(-62 -4491.461)" fill="none" stroke="#dae0ed" stroke-width="1"/>
        <path id="Path_522-4" data-name="Path 522" d="M704.616,4391.387v190.539" transform="translate(-52 -4491.461)" fill="none" stroke="#dae0ed" stroke-width="1"/>
        <path id="Path_522-5" data-name="Path 522" d="M704.616,4391.387v190.539" transform="translate(-42 -4491.461)" fill="none" stroke="#dae0ed" stroke-width="1"/>
        <path id="Path_522-6" data-name="Path 522" d="M704.616,4391.387v190.539" transform="translate(-32 -4491.461)" fill="none" stroke="#dae0ed" stroke-width="1"/>
        <path id="Path_522-7" data-name="Path 522" d="M704.616,4391.387v190.539" transform="translate(-22 -4491.461)" fill="none" stroke="#dae0ed" stroke-width="1"/>
        <path id="Path_522-8" data-name="Path 522" d="M704.616,4391.387v190.539" transform="translate(-12 -4491.461)" fill="none" stroke="#dae0ed" stroke-width="1"/>
        <path id="Path_522-9" data-name="Path 522" d="M704.616,4391.387v190.539" transform="translate(-2 -4491.461)" fill="none" stroke="#dae0ed" stroke-width="1"/>
        <path id="Path_522-10" data-name="Path 522" d="M704.616,4391.387v190.539" transform="translate(8 -4491.461)" fill="none" stroke="#dae0ed" stroke-width="1"/>
        <path id="Path_522-11" data-name="Path 522" d="M704.616,4391.387v190.539" transform="translate(18 -4491.461)" fill="none" stroke="#dae0ed" stroke-width="1"/>
        <path id="Path_522-12" data-name="Path 522" d="M704.616,4391.387v190.539" transform="translate(28 -4491.461)" fill="none" stroke="#dae0ed" stroke-width="1"/>
        <path id="Path_522-13" data-name="Path 522" d="M704.616,4391.387v190.539" transform="translate(38 -4491.461)" fill="none" stroke="#dae0ed" stroke-width="1"/>
        <path id="Path_522-14" data-name="Path 522" d="M704.616,4391.387v190.539" transform="translate(48 -4491.461)" fill="none" stroke="#dae0ed" stroke-width="1"/>
        <path id="Path_522-15" data-name="Path 522" d="M704.616,4391.387v190.539" transform="translate(58 -4491.461)" fill="none" stroke="#dae0ed" stroke-width="1"/>
        <path id="Path_522-16" data-name="Path 522" d="M704.616,4391.387v190.539" transform="translate(68 -4491.461)" fill="none" stroke="#dae0ed" stroke-width="1"/>
        <path id="Path_522-17" data-name="Path 522" d="M704.616,4391.387v190.539" transform="translate(78 -4491.461)" fill="none" stroke="#dae0ed" stroke-width="1"/>
        <path id="Path_522-18" data-name="Path 522" d="M704.616,4391.387v190.539" transform="translate(88 -4491.461)" fill="none" stroke="#dae0ed" stroke-width="1"/>
        <path id="Path_522-19" data-name="Path 522" d="M704.616,4391.387v190.539" transform="translate(98 -4491.461)" fill="none" stroke="#dae0ed" stroke-width="1"/>
        <path id="Path_522-20" data-name="Path 522" d="M704.616,4391.387v190.539" transform="translate(108 -4491.461)" fill="none" stroke="#dae0ed" stroke-width="1"/>
        <path id="Path_522-21" data-name="Path 522" d="M704.616,4391.387v190.539" transform="translate(118 -4491.461)" fill="none" stroke="#dae0ed" stroke-width="1"/>
        <path id="Path_522-22" data-name="Path 522" d="M704.616,4391.387v190.539" transform="translate(128 -4491.461)" fill="none" stroke="#dae0ed" stroke-width="1"/>
        <path id="Path_522-23" data-name="Path 522" d="M704.616,4391.387v190.539" transform="translate(138 -4491.461)" fill="none" stroke="#dae0ed" stroke-width="1"/>
        <path id="Path_522-24" data-name="Path 522" d="M704.616,4391.387v190.539" transform="translate(148 -4491.461)" fill="none" stroke="#dae0ed" stroke-width="1"/>
        <path id="Path_522-25" data-name="Path 522" d="M704.616,4391.387v190.539" transform="translate(158 -4491.461)" fill="none" stroke="#dae0ed" stroke-width="1"/>
        <path id="Path_522-26" data-name="Path 522" d="M704.616,4391.387v190.539" transform="translate(168 -4491.461)" fill="none" stroke="#dae0ed" stroke-width="1"/>
        <path id="Path_522-27" data-name="Path 522" d="M704.616,4391.387v190.539" transform="translate(178 -4491.461)" fill="none" stroke="#dae0ed" stroke-width="1"/>
        <path id="Path_522-28" data-name="Path 522" d="M704.616,4391.387v190.539" transform="translate(188 -4491.461)" fill="none" stroke="#dae0ed" stroke-width="1"/>
        <path id="Path_522-29" data-name="Path 522" d="M704.616,4391.387v190.539" transform="translate(198 -4491.461)" fill="none" stroke="#dae0ed" stroke-width="1"/>
        <path id="Path_522-30" data-name="Path 522" d="M704.616,4391.387v190.539" transform="translate(208 -4491.461)" fill="none" stroke="#dae0ed" stroke-width="1"/>
        <path id="Path_522-31" data-name="Path 522" d="M704.616,4391.387v190.539" transform="translate(218 -4491.461)" fill="none" stroke="#dae0ed" stroke-width="1"/>
        <path id="Path_522-32" data-name="Path 522" d="M704.616,4391.387v190.539" transform="translate(228 -4491.461)" fill="none" stroke="#dae0ed" stroke-width="1"/>
        <path id="Path_522-33" data-name="Path 522" d="M704.616,4391.387v190.539" transform="translate(-82 -4654.461)" fill="none" stroke="#dae0ed" stroke-width="1"/>
        <path id="Path_522-34" data-name="Path 522" d="M704.616,4391.387v190.539" transform="translate(-72 -4654.461)" fill="none" stroke="#dae0ed" stroke-width="1"/>
        <path id="Path_522-35" data-name="Path 522" d="M704.616,4391.387v190.539" transform="translate(-62 -4654.461)" fill="none" stroke="#dae0ed" stroke-width="1"/>
        <path id="Path_522-36" data-name="Path 522" d="M704.616,4391.387v190.539" transform="translate(-52 -4654.461)" fill="none" stroke="#dae0ed" stroke-width="1"/>
        <path id="Path_522-37" data-name="Path 522" d="M704.616,4391.387v190.539" transform="translate(-42 -4654.461)" fill="none" stroke="#dae0ed" stroke-width="1"/>
        <path id="Path_522-38" data-name="Path 522" d="M704.616,4391.387v190.539" transform="translate(-32 -4654.461)" fill="none" stroke="#dae0ed" stroke-width="1"/>
        <path id="Path_522-39" data-name="Path 522" d="M704.616,4391.387v190.539" transform="translate(-22 -4654.461)" fill="none" stroke="#dae0ed" stroke-width="1"/>
        <path id="Path_522-40" data-name="Path 522" d="M704.616,4391.387v190.539" transform="translate(-12 -4654.461)" fill="none" stroke="#dae0ed" stroke-width="1"/>
        <path id="Path_522-41" data-name="Path 522" d="M704.616,4391.387v190.539" transform="translate(-2 -4654.461)" fill="none" stroke="#dae0ed" stroke-width="1"/>
        <path id="Path_522-42" data-name="Path 522" d="M704.616,4391.387v190.539" transform="translate(8 -4654.461)" fill="none" stroke="#dae0ed" stroke-width="1"/>
        <path id="Path_522-43" data-name="Path 522" d="M704.616,4391.387v190.539" transform="translate(18 -4654.461)" fill="none" stroke="#dae0ed" stroke-width="1"/>
        <path id="Path_522-44" data-name="Path 522" d="M704.616,4391.387v190.539" transform="translate(28 -4654.461)" fill="none" stroke="#dae0ed" stroke-width="1"/>
        <path id="Path_522-45" data-name="Path 522" d="M704.616,4391.387v190.539" transform="translate(38 -4654.461)" fill="none" stroke="#dae0ed" stroke-width="1"/>
        <path id="Path_522-46" data-name="Path 522" d="M704.616,4391.387v190.539" transform="translate(48 -4654.461)" fill="none" stroke="#dae0ed" stroke-width="1"/>
        <path id="Path_522-47" data-name="Path 522" d="M704.616,4391.387v190.539" transform="translate(58 -4654.461)" fill="none" stroke="#dae0ed" stroke-width="1"/>
        <path id="Path_522-48" data-name="Path 522" d="M704.616,4391.387v190.539" transform="translate(68 -4654.461)" fill="none" stroke="#dae0ed" stroke-width="1"/>
        <path id="Path_522-49" data-name="Path 522" d="M704.616,4391.387v190.539" transform="translate(78 -4654.461)" fill="none" stroke="#dae0ed" stroke-width="1"/>
        <path id="Path_522-50" data-name="Path 522" d="M704.616,4391.387v190.539" transform="translate(88 -4654.461)" fill="none" stroke="#dae0ed" stroke-width="1"/>
        <path id="Path_522-51" data-name="Path 522" d="M704.616,4391.387v190.539" transform="translate(98 -4654.461)" fill="none" stroke="#dae0ed" stroke-width="1"/>
        <path id="Path_522-52" data-name="Path 522" d="M704.616,4391.387v190.539" transform="translate(108 -4654.461)" fill="none" stroke="#dae0ed" stroke-width="1"/>
        <path id="Path_522-53" data-name="Path 522" d="M704.616,4391.387v190.539" transform="translate(118 -4654.461)" fill="none" stroke="#dae0ed" stroke-width="1"/>
        <path id="Path_522-54" data-name="Path 522" d="M704.616,4391.387v190.539" transform="translate(128 -4654.461)" fill="none" stroke="#dae0ed" stroke-width="1"/>
        <path id="Path_522-55" data-name="Path 522" d="M704.616,4391.387v190.539" transform="translate(138 -4654.461)" fill="none" stroke="#dae0ed" stroke-width="1"/>
        <path id="Path_522-56" data-name="Path 522" d="M704.616,4391.387v190.539" transform="translate(148 -4654.461)" fill="none" stroke="#dae0ed" stroke-width="1"/>
        <path id="Path_522-57" data-name="Path 522" d="M704.616,4391.387v190.539" transform="translate(158 -4654.461)" fill="none" stroke="#dae0ed" stroke-width="1"/>
        <path id="Path_522-58" data-name="Path 522" d="M704.616,4391.387v190.539" transform="translate(168 -4654.461)" fill="none" stroke="#dae0ed" stroke-width="1"/>
        <path id="Path_522-59" data-name="Path 522" d="M704.616,4391.387v190.539" transform="translate(178 -4654.461)" fill="none" stroke="#dae0ed" stroke-width="1"/>
        <path id="Path_522-60" data-name="Path 522" d="M704.616,4391.387v190.539" transform="translate(188 -4654.461)" fill="none" stroke="#dae0ed" stroke-width="1"/>
        <path id="Path_522-61" data-name="Path 522" d="M704.616,4391.387v190.539" transform="translate(198 -4654.461)" fill="none" stroke="#dae0ed" stroke-width="1"/>
        <path id="Path_522-62" data-name="Path 522" d="M704.616,4391.387v190.539" transform="translate(208 -4654.461)" fill="none" stroke="#dae0ed" stroke-width="1"/>
        <path id="Path_522-63" data-name="Path 522" d="M704.616,4391.387v190.539" transform="translate(218 -4654.461)" fill="none" stroke="#dae0ed" stroke-width="1"/>
        <path id="Path_522-64" data-name="Path 522" d="M704.616,4391.387v190.539" transform="translate(228 -4654.461)" fill="none" stroke="#dae0ed" stroke-width="1"/>
      </g>
    </g>
    <g id="Group_857" data-name="Group 857" transform="translate(12 -1)">
      <g id="lock-line" transform="translate(712 4118)">
        <path id="Path_520" data-name="Path 520" d="M0,0H16V16H0Z" fill="none"/>
        <path id="Path_521" data-name="Path 521" d="M13.311,7.227h.644a.649.649,0,0,1,.644.653v6.533a.649.649,0,0,1-.644.653H3.644A.649.649,0,0,1,3,14.413V7.88a.649.649,0,0,1,.644-.653h.644V6.573a4.512,4.512,0,1,1,9.022,0ZM4.289,8.533V13.76h9.022V8.533ZM8.156,9.84H9.444v2.613H8.156Zm3.867-2.613V6.573a3.223,3.223,0,1,0-6.444,0v.653Z" transform="translate(-0.8 -0.533)" fill="#46484d"/>
      </g>
      <text id="Access_forbidden" data-name="Access forbidden" transform="translate(734 4130)" fill="#3d414f" font-size="12" font-family="OpenSans-Regular, Open Sans"><tspan x="0" y="0">Access forbidden</tspan></text>
    </g>
  </g>
</svg>
