<svg xmlns="http://www.w3.org/2000/svg" width="415.88" height="191.155" viewBox="0 0 415.88 191.155">
  <g id="authentication-bg" transform="translate(0 -68.116)">
    <rect id="Rectangle_879" data-name="Rectangle 879" width="6.259" height="6.259" transform="translate(409.621 129.729)" fill="#85a5ff" opacity="0.2"/>
    <rect id="Rectangle_880" data-name="Rectangle 880" width="6" height="6" transform="translate(330.574 172.075)" fill="#85a5ff" opacity="0.7"/>
    <rect id="Rectangle_882" data-name="Rectangle 882" width="6.259" height="6.259" transform="translate(296.5 174.729)" fill="#ffe0cc"/>
    <rect id="Rectangle_893" data-name="Rectangle 893" width="6.259" height="6.259" transform="translate(311.84 174.34)" fill="#85a5ff"/>
    <rect id="Rectangle_895" data-name="Rectangle 895" width="6.259" height="6.259" transform="translate(296.5 165.34)" fill="#85a5ff"/>
    <rect id="Rectangle_906" data-name="Rectangle 906" width="6.259" height="6.259" transform="translate(352.84 158.951)" fill="#85a5ff"/>
    <rect id="Rectangle_907" data-name="Rectangle 907" width="6" height="6" transform="translate(309.574 155.075)" fill="#85a5ff"/>
    <rect id="Rectangle_917" data-name="Rectangle 917" width="6.259" height="6.259" transform="translate(388.84 158.562)" fill="#85a5ff" opacity="0.3"/>
    <rect id="Rectangle_918" data-name="Rectangle 918" width="6" height="5" transform="translate(293.574 147.075)" fill="#85a5ff"/>
    <rect id="Rectangle_925" data-name="Rectangle 925" width="6.259" height="6.259" transform="translate(335.84 136.173)" fill="#85a5ff" opacity="0.7"/>
    <rect id="Rectangle_938" data-name="Rectangle 938" width="6" height="7" transform="translate(352.574 121.075)" fill="#85a5ff" opacity="0.4"/>
    <rect id="Rectangle_939" data-name="Rectangle 939" width="6.259" height="6.259" transform="translate(293.281 129.785)" fill="#85a5ff"/>
    <rect id="Rectangle_954" data-name="Rectangle 954" width="6.259" height="6.259" transform="translate(306.281 118.396)" fill="#85a5ff"/>
    <rect id="Rectangle_955" data-name="Rectangle 955" width="6.259" height="6.259" transform="translate(296.5 118.396)" fill="#ccffdb"/>
    <rect id="Rectangle_966" data-name="Rectangle 966" width="6.259" height="6.259" transform="translate(370.84 100.007)" fill="#85a5ff" opacity="0.3"/>
    <rect id="Rectangle_967" data-name="Rectangle 967" width="6" height="6" transform="translate(316.574 109.075)" fill="#85a5ff"/>
    <rect id="Rectangle_972" data-name="Rectangle 972" width="6.259" height="6.259" transform="translate(333.84 100.618)" fill="#85a5ff"/>
    <rect id="Rectangle_974" data-name="Rectangle 974" width="6.259" height="6.259" transform="translate(316.281 74.618)" fill="#85a5ff" opacity="0.5"/>
    <rect id="Rectangle_975" data-name="Rectangle 975" width="6.259" height="6.259" transform="translate(296.5 99.618)" fill="#85a5ff"/>
    <g id="Group_791" data-name="Group 791" transform="translate(144.5 71.075)">
      <g id="Group_502" data-name="Group 502" transform="translate(0 0)">
        <g id="Group_500" data-name="Group 500" transform="translate(0)">
          <g id="Group_499" data-name="Group 499" transform="translate(0 0)">
            <g id="Group_501" data-name="Group 501" transform="translate(0 28.543)">
              <rect id="Rectangle_871" data-name="Rectangle 871" width="6" height="6" transform="translate(137.073 75.457)" fill="#85a5ff"/>
              <path id="Union_7" data-name="Union 7" d="M6.26,0V6.259h6.259V0ZM0,0V6.259H6.26V0Z" transform="translate(123.62 81.369) rotate(180)" fill="#85a5ff" stroke="rgba(0,0,0,0)" stroke-miterlimit="10" stroke-width="1"/>
              <rect id="Rectangle_874" data-name="Rectangle 874" width="7" height="6" transform="translate(97.073 75.457)" fill="#85a5ff"/>
              <rect id="Rectangle_875" data-name="Rectangle 875" width="6.259" height="6.259" transform="translate(88.02 75.11)" fill="#85a5ff"/>
              <rect id="Rectangle_876" data-name="Rectangle 876" width="6.259" height="6.259" transform="translate(78.24 75.11)" fill="#85a5ff"/>
              <rect id="Rectangle_877" data-name="Rectangle 877" width="5" height="6" transform="translate(59.073 75.457)" fill="#85a5ff"/>
              <rect id="Rectangle_878" data-name="Rectangle 878" width="6.259" height="6.259" transform="translate(48.9 75.11)" fill="#ff4d4f"/>
              <rect id="Rectangle_879-2" data-name="Rectangle 879" width="6.259" height="6.259" transform="translate(39.12 75.11)" fill="#85a5ff"/>
              <rect id="Rectangle_880-2" data-name="Rectangle 880" width="6" height="6" transform="translate(20.073 75.457)" fill="#85a5ff"/>
              <rect id="Rectangle_881" data-name="Rectangle 881" width="6.259" height="6.259" transform="translate(9.78 75.11)" fill="#00feec"/>
              <rect id="Rectangle_882-2" data-name="Rectangle 882" width="6.259" height="6.259" transform="translate(0 75.11)" fill="#85a5ff"/>
              <rect id="Rectangle_883" data-name="Rectangle 883" width="6" height="7" transform="translate(137.073 65.457)" fill="#85a5ff"/>
              <rect id="Rectangle_884" data-name="Rectangle 884" width="6.259" height="6.259" transform="translate(127.14 65.722)" fill="#85a5ff"/>
              <rect id="Rectangle_885" data-name="Rectangle 885" width="6.259" height="6.259" transform="translate(117.36 65.722)" fill="#85a5ff"/>
              <rect id="Rectangle_886" data-name="Rectangle 886" width="6.259" height="6.259" transform="translate(107.58 65.722)" fill="#00feec"/>
              <path id="Union_8" data-name="Union 8" d="M6.26,0V6.259h6.259V0ZM0,0V6.259H6.26V0Z" transform="translate(100.539 71.98) rotate(180)" fill="#85a5ff" stroke="rgba(0,0,0,0)" stroke-miterlimit="10" stroke-width="1"/>
              <rect id="Rectangle_889" data-name="Rectangle 889" width="6.259" height="6.259" transform="translate(78.24 65.722)" fill="#85a5ff"/>
              <rect id="Rectangle_890" data-name="Rectangle 890" width="6.259" height="6.259" transform="translate(68.46 65.722)" fill="#85a5ff"/>
              <rect id="Rectangle_891" data-name="Rectangle 891" width="5" height="7" transform="translate(59.073 65.457)" fill="#85a5ff"/>
              <rect id="Rectangle_892" data-name="Rectangle 892" width="6.259" height="6.259" transform="translate(39.12 65.722)" fill="#85a5ff"/>
              <rect id="Rectangle_893-2" data-name="Rectangle 893" width="6.259" height="6.259" transform="translate(29.34 65.722)" fill="#85a5ff"/>
              <rect id="Rectangle_894" data-name="Rectangle 894" width="6.259" height="6.259" transform="translate(9.78 65.722)" fill="#85a5ff"/>
              <rect id="Rectangle_895-2" data-name="Rectangle 895" width="6.259" height="6.259" transform="translate(0 65.722)" fill="#00feec"/>
              <rect id="Rectangle_896" data-name="Rectangle 896" width="6.259" height="6.259" transform="translate(127.14 56.333)" fill="#00feec"/>
              <rect id="Rectangle_897" data-name="Rectangle 897" width="6.259" height="6.259" transform="translate(117.36 56.333)" fill="#85a5ff"/>
              <rect id="Rectangle_898" data-name="Rectangle 898" width="6.259" height="6.259" transform="translate(107.58 56.333)" fill="#85a5ff"/>
              <rect id="Rectangle_899" data-name="Rectangle 899" width="7" height="6" transform="translate(97.073 56.457)" fill="#85a5ff"/>
              <rect id="Rectangle_900" data-name="Rectangle 900" width="6.259" height="6.259" transform="translate(88.02 56.333)" fill="#85a5ff"/>
              <rect id="Rectangle_901" data-name="Rectangle 901" width="6.259" height="6.259" transform="translate(78.24 56.333)" fill="#85a5ff"/>
              <rect id="Rectangle_902" data-name="Rectangle 902" width="6.259" height="6.259" transform="translate(68.46 56.333)" fill="#85a5ff"/>
              <rect id="Rectangle_903" data-name="Rectangle 903" width="5" height="6" transform="translate(59.073 56.457)" fill="#85a5ff"/>
              <rect id="Rectangle_904" data-name="Rectangle 904" width="6.259" height="6.259" transform="translate(48.9 56.333)" fill="#85a5ff"/>
              <rect id="Rectangle_905" data-name="Rectangle 905" width="6.259" height="6.259" transform="translate(39.12 56.333)" fill="#85a5ff"/>
              <rect id="Rectangle_906-2" data-name="Rectangle 906" width="6.259" height="6.259" transform="translate(29.34 56.333)" fill="#85a5ff"/>
              <rect id="Rectangle_907-2" data-name="Rectangle 907" width="6" height="6" transform="translate(20.073 56.457)" fill="#85a5ff"/>
              <rect id="Rectangle_908" data-name="Rectangle 908" width="6" height="5" transform="translate(137.073 47.457)" fill="#ffe0cc"/>
              <rect id="Rectangle_909" data-name="Rectangle 909" width="6.259" height="6.259" transform="translate(127.14 46.944)" fill="#85a5ff"/>
              <rect id="Rectangle_910" data-name="Rectangle 910" width="6.259" height="6.259" transform="translate(107.58 46.944)" fill="#85a5ff"/>
              <rect id="Rectangle_911" data-name="Rectangle 911" width="7" height="5" transform="translate(97.073 47.457)" fill="#85a5ff"/>
              <rect id="Rectangle_912" data-name="Rectangle 912" width="6.259" height="6.259" transform="translate(88.02 46.944)" fill="#85a5ff"/>
              <rect id="Rectangle_913" data-name="Rectangle 913" width="6.259" height="6.259" transform="translate(78.24 46.944)" fill="#85a5ff"/>
              <rect id="Rectangle_914" data-name="Rectangle 914" width="6.259" height="6.259" transform="translate(68.46 46.944)" fill="#85a5ff"/>
              <rect id="Rectangle_915" data-name="Rectangle 915" width="6.259" height="6.259" transform="translate(48.9 46.944)" fill="#85a5ff"/>
              <rect id="Rectangle_916" data-name="Rectangle 916" width="6.259" height="6.259" transform="translate(39.12 46.944)" fill="#85a5ff"/>
              <rect id="Rectangle_917-2" data-name="Rectangle 917" width="6.259" height="6.259" transform="translate(29.34 46.944)" fill="#00feec"/>
              <rect id="Rectangle_918-2" data-name="Rectangle 918" width="6" height="5" transform="translate(20.073 47.457)" fill="#85a5ff"/>
              <rect id="Rectangle_919" data-name="Rectangle 919" width="6.259" height="6.259" transform="translate(127.14 37.555)" fill="#85a5ff"/>
              <rect id="Rectangle_920" data-name="Rectangle 920" width="6.259" height="6.259" transform="translate(117.36 37.555)" fill="#85a5ff"/>
              <rect id="Rectangle_921" data-name="Rectangle 921" width="6.259" height="6.259" transform="translate(107.58 37.555)" fill="#00feec"/>
              <rect id="Rectangle_922" data-name="Rectangle 922" width="6.259" height="6.259" transform="translate(78.24 37.555)" fill="#85a5ff"/>
              <rect id="Rectangle_923" data-name="Rectangle 923" width="5" height="6" transform="translate(59.073 37.457)" fill="#85a5ff"/>
              <rect id="Rectangle_924" data-name="Rectangle 924" width="6.259" height="6.259" transform="translate(39.12 37.555)" fill="#85a5ff"/>
              <rect id="Rectangle_925-2" data-name="Rectangle 925" width="6.259" height="6.259" transform="translate(29.34 37.555)" fill="#85a5ff"/>
              <rect id="Rectangle_926" data-name="Rectangle 926" width="6" height="7" transform="translate(137.073 27.457)" fill="#85a5ff"/>
              <path id="Union_6" data-name="Union 6" d="M6.26,0V6.259h6.259V0ZM0,0V6.259H6.26V0Z" transform="translate(133.399 34.425) rotate(180)" fill="#00feec" stroke="rgba(0,0,0,0)" stroke-miterlimit="10" stroke-width="1"/>
              <rect id="Rectangle_929" data-name="Rectangle 929" width="6.259" height="6.259" transform="translate(107.58 28.166)" fill="#85a5ff"/>
              <rect id="Rectangle_930" data-name="Rectangle 930" width="7" height="7" transform="translate(97.073 27.457)" fill="#85a5ff"/>
              <rect id="Rectangle_931" data-name="Rectangle 931" width="6.259" height="6.259" transform="translate(88.02 28.166)" fill="#85a5ff"/>
              <rect id="Rectangle_932" data-name="Rectangle 932" width="6.259" height="6.259" transform="translate(78.24 28.166)" fill="#85a5ff"/>
              <rect id="Rectangle_933" data-name="Rectangle 933" width="6.259" height="6.259" transform="translate(68.46 28.166)" fill="#85a5ff"/>
              <rect id="Rectangle_934" data-name="Rectangle 934" width="6.259" height="6.259" transform="translate(62.201 28.166)" fill="#85a5ff"/>
              <rect id="Rectangle_935" data-name="Rectangle 935" width="6.259" height="6.259" transform="translate(48.9 28.166)" fill="#85a5ff"/>
              <rect id="Rectangle_936" data-name="Rectangle 936" width="6.259" height="6.259" transform="translate(39.12 28.166)" fill="#85a5ff"/>
              <rect id="Rectangle_937" data-name="Rectangle 937" width="6.259" height="6.259" transform="translate(29.34 28.166)" fill="#85a5ff"/>
              <rect id="Rectangle_938-2" data-name="Rectangle 938" width="6" height="7" transform="translate(20.073 27.457)" fill="#85a5ff"/>
              <rect id="Rectangle_939-2" data-name="Rectangle 939" width="6.259" height="6.259" transform="translate(9.78 28.166)" fill="#85a5ff"/>
              <rect id="Rectangle_940" data-name="Rectangle 940" width="6.259" height="6.259" transform="translate(0 28.166)" fill="#85a5ff"/>
              <rect id="Rectangle_941" data-name="Rectangle 941" width="6" height="7" transform="translate(137.073 18.457)" fill="#85a5ff"/>
              <rect id="Rectangle_942" data-name="Rectangle 942" width="6.259" height="6.259" transform="translate(127.14 18.778)" fill="#85a5ff"/>
              <rect id="Rectangle_943" data-name="Rectangle 943" width="6.259" height="6.259" transform="translate(117.36 18.778)" fill="#85a5ff"/>
              <rect id="Rectangle_944" data-name="Rectangle 944" width="6.259" height="6.259" transform="translate(107.58 18.778)" fill="#85a5ff"/>
              <rect id="Rectangle_945" data-name="Rectangle 945" width="6.259" height="6.259" transform="translate(94.279 18.778)" fill="#85a5ff"/>
              <rect id="Rectangle_946" data-name="Rectangle 946" width="6.259" height="6.259" transform="translate(88.02 18.778)" fill="#85a5ff"/>
              <rect id="Rectangle_947" data-name="Rectangle 947" width="6.259" height="6.259" transform="translate(78.24 18.778)" fill="#85a5ff"/>
              <rect id="Rectangle_948" data-name="Rectangle 948" width="6.259" height="6.259" transform="translate(68.46 18.778)" fill="#85a5ff"/>
              <rect id="Rectangle_949" data-name="Rectangle 949" width="5" height="7" transform="translate(59.073 18.457)" fill="#85a5ff"/>
              <rect id="Rectangle_950" data-name="Rectangle 950" width="7" height="7" transform="translate(52.073 18.457)" fill="#85a5ff"/>
              <rect id="Rectangle_951" data-name="Rectangle 951" width="6.259" height="6.259" transform="translate(39.12 18.778)" fill="#85a5ff"/>
              <rect id="Rectangle_952" data-name="Rectangle 952" width="6.259" height="6.259" transform="translate(29.34 18.778)" fill="#85a5ff"/>
              <rect id="Rectangle_953" data-name="Rectangle 953" width="6" height="7" transform="translate(20.073 18.457)" fill="#00feec"/>
              <rect id="Rectangle_954-2" data-name="Rectangle 954" width="6.259" height="6.259" transform="translate(9.78 18.778)" fill="#ff4d4f"/>
              <rect id="Rectangle_955-2" data-name="Rectangle 955" width="6.259" height="6.259" transform="translate(0 18.778)" fill="#85a5ff"/>
              <rect id="Rectangle_956" data-name="Rectangle 956" width="6" height="6" transform="translate(137.073 9.457)" fill="#85a5ff"/>
              <rect id="Rectangle_957" data-name="Rectangle 957" width="6.259" height="6.259" transform="translate(117.36 9.389)" fill="#ffa39e"/>
              <rect id="Rectangle_958" data-name="Rectangle 958" width="6.259" height="6.259" transform="translate(107.58 9.389)" fill="#85a5ff"/>
              <rect id="Rectangle_959" data-name="Rectangle 959" width="7" height="6" transform="translate(97.073 9.457)" fill="#85a5ff"/>
              <rect id="Rectangle_960" data-name="Rectangle 960" width="6.259" height="6.259" transform="translate(88.02 9.389)" fill="#85a5ff"/>
              <rect id="Rectangle_961" data-name="Rectangle 961" width="6.259" height="6.259" transform="translate(78.24 9.389)" fill="#85a5ff"/>
              <rect id="Rectangle_962" data-name="Rectangle 962" width="6.259" height="6.259" transform="translate(68.46 9.389)" fill="#85a5ff"/>
              <rect id="Rectangle_963" data-name="Rectangle 963" width="5" height="6" transform="translate(59.073 9.457)" fill="#85a5ff"/>
              <rect id="Rectangle_964" data-name="Rectangle 964" width="6.259" height="6.259" transform="translate(48.9 9.389)" fill="#85a5ff"/>
              <rect id="Rectangle_965" data-name="Rectangle 965" width="6.259" height="6.259" transform="translate(39.12 9.389)" fill="#85a5ff"/>
              <rect id="Rectangle_966-2" data-name="Rectangle 966" width="6.259" height="6.259" transform="translate(29.34 9.389)" fill="#ffa39e"/>
              <rect id="Rectangle_967-2" data-name="Rectangle 967" width="6" height="6" transform="translate(20.073 9.457)" fill="#85a5ff"/>
              <rect id="Rectangle_968" data-name="Rectangle 968" width="6.259" height="6.259" transform="translate(117.36)" fill="#85a5ff"/>
              <rect id="Rectangle_969" data-name="Rectangle 969" width="6.259" height="6.259" transform="translate(78.24)" fill="#85a5ff"/>
              <rect id="Rectangle_970" data-name="Rectangle 970" width="6.259" height="6.259" transform="translate(68.46)" fill="#85a5ff"/>
              <rect id="Rectangle_971" data-name="Rectangle 971" width="6.259" height="6.259" transform="translate(48.9)" fill="#85a5ff"/>
              <rect id="Rectangle_972-2" data-name="Rectangle 972" width="6.259" height="6.259" transform="translate(29.34)" fill="#85a5ff"/>
              <rect id="Rectangle_973" data-name="Rectangle 973" width="6" height="6" transform="translate(20.073 0.457)" fill="#85a5ff"/>
              <rect id="Rectangle_974-2" data-name="Rectangle 974" width="6.259" height="6.259" transform="translate(9.78)" fill="#ffa39e"/>
              <rect id="Rectangle_975-2" data-name="Rectangle 975" width="6.259" height="6.259" transform="translate(0)" fill="#85a5ff"/>
            </g>
            <rect id="Rectangle_870" data-name="Rectangle 870" width="68" height="94" rx="6" transform="translate(37.073 0)" fill="#f5f8ff"/>
          </g>
        </g>
        <g id="Group_1511" data-name="Group 1511" transform="translate(0 -2)">
          <path id="Path_203" data-name="Path 203" d="M1591.943,3537.371h-16.367" transform="translate(-1501.383 -3514.225)" fill="none" stroke="#85a5ff" stroke-width="2"/>
          <path id="Path_204" data-name="Path 204" d="M1591.943,3537.371h-16.367" transform="translate(-1501.383 -3505.547)" fill="none" stroke="#85a5ff" stroke-width="2"/>
          <path id="Path_205" data-name="Path 205" d="M1591.943,3537.371h-16.367" transform="translate(-1501.383 -3496.869)" fill="none" stroke="#85a5ff" stroke-width="2"/>
        </g>
        <g id="Rectangle_982" data-name="Rectangle 982" transform="translate(48.073 18)" fill="#fff" stroke="#85a5ff" stroke-width="2">
          <rect width="17" height="23" stroke="none"/>
          <rect x="1" y="1" width="15" height="21" fill="none"/>
        </g>
      </g>
      <rect id="Rectangle_985" data-name="Rectangle 985" width="7" height="5" transform="translate(97.073 76)" fill="#3359cc"/>
      <rect id="Rectangle_986" data-name="Rectangle 986" width="6.259" height="6.259" transform="translate(88.02 75.487)" fill="#3359cc"/>
      <rect id="Rectangle_987" data-name="Rectangle 987" width="6.259" height="6.259" transform="translate(78.24 75.487)" fill="#3359cc"/>
      <rect id="Rectangle_988" data-name="Rectangle 988" width="6.259" height="6.259" transform="translate(68.46 75.487)" fill="#3359cc"/>
      <rect id="Rectangle_989" data-name="Rectangle 989" width="6.259" height="6.259" transform="translate(48.9 75.487)" fill="#3359cc"/>
      <rect id="Rectangle_990" data-name="Rectangle 990" width="6.259" height="6.259" transform="translate(39.12 75.487)" fill="#3359cc"/>
      <rect id="Rectangle_992" data-name="Rectangle 992" width="6.259" height="6.259" transform="translate(78.24 66.098)" fill="#3359cc"/>
      <rect id="Rectangle_993" data-name="Rectangle 993" width="5" height="6" transform="translate(59.073 66)" fill="#3359cc"/>
      <rect id="Rectangle_994" data-name="Rectangle 994" width="6.259" height="6.259" transform="translate(39.12 66.098)" fill="#3359cc"/>
      <rect id="Rectangle_996" data-name="Rectangle 996" width="7" height="7" transform="translate(97.073 56)" fill="#3359cc"/>
      <rect id="Rectangle_997" data-name="Rectangle 997" width="6.259" height="6.259" transform="translate(88.02 56.71)" fill="#3359cc"/>
      <rect id="Rectangle_998" data-name="Rectangle 998" width="6.259" height="6.259" transform="translate(78.24 56.71)" fill="#3359cc"/>
      <path id="Union_5" data-name="Union 5" d="M6.259,0V6.259h6.259V0ZM0,0V6.259H6.259V0Z" transform="translate(74.718 62.969) rotate(180)" fill="#3359cc" stroke="rgba(0,0,0,0)" stroke-miterlimit="10" stroke-width="1"/>
      <rect id="Rectangle_1001" data-name="Rectangle 1001" width="6.259" height="6.259" transform="translate(48.9 56.71)" fill="#3359cc"/>
      <rect id="Rectangle_1002" data-name="Rectangle 1002" width="6.259" height="6.259" transform="translate(39.12 56.71)" fill="#3359cc"/>
    </g>
    <g id="Group_501-2" data-name="Group 501" transform="translate(0 68.116)">
      <path id="Rectangle_871-2" data-name="Rectangle 871" d="M1249.626,235.684l-3.179.636v5.793l3.179-.74Z" transform="translate(-1106.747 -126.78)" fill="#85a5ff"/>
      <path id="Union_7-2" data-name="Union 7" d="M1260.491,244.939v-6.806l-4.152.823v6.955Zm3.978-.931v-6.664l-3.978.789v6.806Z" transform="translate(-1132.845 -126.551)" fill="#85a5ff"/>
      <path id="Rectangle_874-2" data-name="Rectangle 874" d="M1272.686,239.936l-4.984,1v6.644l4.984-1.16Z" transform="translate(-1153.991 -126.194)" fill="#85a5ff"/>
      <path id="Rectangle_875-2" data-name="Rectangle 875" d="M1279.045,240.869l-4.908.972v7.571l4.908-1.149Z" transform="translate(-1167.672 -126.065)" fill="#ff4d4f"/>
      <path id="Rectangle_876-2" data-name="Rectangle 876" d="M1286.261,242.223l-5.292,1.048v7.865l5.292-1.239Z" transform="translate(-1182.662 -125.878)" fill="#85a5ff"/>
      <path id="Rectangle_877-2" data-name="Rectangle 877" d="M1302.451,245.757l-5.655,1.131v7.75l5.655-1.317Z" transform="translate(-1216.859 -125.391)" fill="#85a5ff"/>
      <path id="Rectangle_878-2" data-name="Rectangle 878" d="M1311.723,246.977l-6.756,1.338v8.9l6.756-1.582Z" transform="translate(-1235.429 -125.223)" fill="#ffe0cc"/>
      <path id="Rectangle_879-3" data-name="Rectangle 879" d="M1321.777,248.845l-7.382,1.462v9.31l7.382-1.728Z" transform="translate(-1256.209 -124.966)" fill="#85a5ff"/>
      <path id="Rectangle_880-3" data-name="Rectangle 880" d="M1344.283,253.638l-8.1,1.621v9.3l8.1-1.886Z" transform="translate(-1303.506 -124.305)" fill="#85a5ff"/>
      <path id="Rectangle_881-2" data-name="Rectangle 881" d="M1358.39,255.6l-9.885,1.958v10.8l9.885-2.314Z" transform="translate(-1331.634 -124.035)" fill="#85a5ff"/>
      <path id="Rectangle_882-3" data-name="Rectangle 882" d="M1373.354,258.344l-11.009,2.181v11.406l11.009-2.578Z" transform="translate(-1362.345 -123.657)" fill="#85a5ff"/>
      <path id="Rectangle_883-2" data-name="Rectangle 883" d="M1249.626,226.684l-3.179.449v6.952l3.179-.574Z" transform="translate(-1106.747 -128.02)" fill="#85a5ff"/>
      <path id="Rectangle_884-2" data-name="Rectangle 884" d="M1254.887,227.811l-3.726.537v6.586l3.726-.671Z" transform="translate(-1117.37 -127.865)" fill="#85a5ff"/>
      <path id="Rectangle_885-2" data-name="Rectangle 885" d="M1260.316,228.557l-3.978.573v6.808l3.978-.716Z" transform="translate(-1128.691 -127.762)" fill="#85a5ff"/>
      <path id="Rectangle_886-2" data-name="Rectangle 886" d="M1266.124,229.353l-4.256.613v7.044l4.256-.767Z" transform="translate(-1140.79 -127.652)" fill="#00feec"/>
      <path id="Union_8-2" data-name="Union 8" d="M1274.928,238.6V231.2l-4.906.708v7.569Zm4.683-.844v-7.224l-4.683.675V238.6Z" transform="translate(-1163.556 -127.49)" fill="#85a5ff"/>
      <path id="Rectangle_889-2" data-name="Rectangle 889" d="M1286.261,232.106l-5.292.762v7.865l5.292-.953Z" transform="translate(-1182.662 -127.273)" fill="#ffe0cc"/>
      <path id="Rectangle_890-2" data-name="Rectangle 890" d="M1294.061,233.167l-5.722.824v8.182l5.722-1.031Z" transform="translate(-1198.846 -127.126)" fill="#85a5ff"/>
      <path id="Rectangle_891-2" data-name="Rectangle 891" d="M1302.451,233.79l-5.655.8v9.3l5.655-1.02Z" transform="translate(-1216.859 -127.04)" fill="#85a5ff"/>
      <path id="Rectangle_892-2" data-name="Rectangle 892" d="M1321.777,236.922l-7.382,1.064v9.31l7.382-1.329Z" transform="translate(-1256.209 -126.609)" fill="#85a5ff"/>
      <path id="Rectangle_893-3" data-name="Rectangle 893" d="M1332.8,238.407l-8.1,1.167v9.758l8.1-1.459Z" transform="translate(-1278.962 -126.404)" fill="#85a5ff"/>
      <path id="Rectangle_894-2" data-name="Rectangle 894" d="M1358.39,241.836l-9.885,1.424v10.8l9.885-1.78Z" transform="translate(-1331.634 -125.932)" fill="#85a5ff"/>
      <path id="Rectangle_895-3" data-name="Rectangle 895" d="M1373.354,243.83l-11.009,1.586v11.406l11.009-1.983Z" transform="translate(-1362.345 -125.657)" fill="#ff4d4f"/>
      <path id="Rectangle_896-2" data-name="Rectangle 896" d="M1254.887,219.305l-3.726.336v6.586l3.726-.47Z" transform="translate(-1117.37 -129.037)" fill="#85a5ff"/>
      <path id="Rectangle_897-2" data-name="Rectangle 897" d="M1260.316,219.771l-3.978.358v6.808l3.978-.5Z" transform="translate(-1128.691 -128.972)" fill="#85a5ff"/>
      <path id="Rectangle_898-2" data-name="Rectangle 898" d="M1266.124,220.269l-4.256.383V227.7l4.256-.537Z" transform="translate(-1140.79 -128.904)" fill="#ffe0cc"/>
      <path id="Rectangle_899-2" data-name="Rectangle 899" d="M1272.686,220.57l-4.984.442v7.973l4.984-.638Z" transform="translate(-1153.991 -128.862)" fill="#85a5ff"/>
      <path id="Rectangle_900-2" data-name="Rectangle 900" d="M1279.045,221.374l-4.908.442v7.571l4.908-.619Z" transform="translate(-1167.672 -128.752)" fill="#85a5ff"/>
      <path id="Rectangle_901-2" data-name="Rectangle 901" d="M1286.261,221.99l-5.292.477v7.865l5.292-.667Z" transform="translate(-1182.662 -128.667)" fill="#85a5ff"/>
      <path id="Rectangle_902-2" data-name="Rectangle 902" d="M1294.061,222.653l-5.722.515v8.182l5.722-.721Z" transform="translate(-1198.846 -128.575)" fill="#00feec"/>
      <path id="Rectangle_903-2" data-name="Rectangle 903" d="M1302.451,223.153l-5.655.5v9.3l5.655-.724Z" transform="translate(-1216.859 -128.506)" fill="#85a5ff"/>
      <path id="Rectangle_904-2" data-name="Rectangle 904" d="M1311.723,224.151l-6.756.608v8.9l6.756-.852Z" transform="translate(-1235.429 -128.369)" fill="#85a5ff"/>
      <path id="Rectangle_905-2" data-name="Rectangle 905" d="M1321.777,225l-7.382.665v9.31l7.382-.931Z" transform="translate(-1256.209 -128.252)" fill="#ff4d4f"/>
      <path id="Rectangle_906-3" data-name="Rectangle 906" d="M1332.8,225.928l-8.1.729v9.758l8.1-1.021Z" transform="translate(-1278.962 -128.124)" fill="#85a5ff"/>
      <path id="Rectangle_907-3" data-name="Rectangle 907" d="M1344.283,226.649l-8.1.719v11.156l8.1-1.037Z" transform="translate(-1303.506 -128.025)" fill="#85a5ff"/>
      <path id="Rectangle_908-2" data-name="Rectangle 908" d="M1249.626,210.684l-3.179.116v5.793l3.179-.22Z" transform="translate(-1106.747 -130.225)" fill="#85a5ff"/>
      <path id="Rectangle_909-2" data-name="Rectangle 909" d="M1254.887,210.8l-3.726.134v6.586l3.726-.268Z" transform="translate(-1117.37 -130.209)" fill="#85a5ff"/>
      <path id="Rectangle_910-2" data-name="Rectangle 910" d="M1266.124,211.184l-4.256.153v7.044l4.256-.307Z" transform="translate(-1140.79 -130.156)" fill="#85a5ff"/>
      <path id="Rectangle_911-2" data-name="Rectangle 911" d="M1272.686,211.457l-4.984.181v6.644l4.984-.345Z" transform="translate(-1153.991 -130.118)" fill="#ff4d4f"/>
      <path id="Rectangle_912-2" data-name="Rectangle 912" d="M1279.045,211.626l-4.908.177v7.571l4.908-.354Z" transform="translate(-1167.672 -130.095)" fill="#85a5ff"/>
      <path id="Rectangle_913-2" data-name="Rectangle 913" d="M1286.261,211.872l-5.292.191v7.865l5.292-.381Z" transform="translate(-1182.662 -130.061)" fill="#85a5ff"/>
      <path id="Rectangle_914-2" data-name="Rectangle 914" d="M1294.061,212.138l-5.722.206v8.182l5.722-.412Z" transform="translate(-1198.846 -130.024)" fill="#85a5ff"/>
      <path id="Rectangle_915-2" data-name="Rectangle 915" d="M1311.723,212.737l-6.756.243v8.9l6.756-.487Z" transform="translate(-1235.429 -129.942)" fill="#85a5ff"/>
      <path id="Rectangle_916-2" data-name="Rectangle 916" d="M1321.777,213.076l-7.382.266v9.31l7.382-.532Z" transform="translate(-1256.209 -129.895)" fill="#85a5ff"/>
      <path id="Rectangle_917-3" data-name="Rectangle 917" d="M1332.8,213.447l-8.1.292V223.5l8.1-.583Z" transform="translate(-1278.962 -129.844)" fill="#85a5ff"/>
      <path id="Rectangle_918-3" data-name="Rectangle 918" d="M1344.283,213.948l-8.1.295v9.3l8.1-.56Z" transform="translate(-1303.506 -129.775)" fill="#85a5ff"/>
      <path id="Rectangle_919-2" data-name="Rectangle 919" d="M1254.887,202.3l-3.726-.067v6.586l3.726-.067Z" transform="translate(-1117.37 -131.389)" fill="#85a5ff"/>
      <path id="Rectangle_920-2" data-name="Rectangle 920" d="M1260.316,202.208l-3.978-.072v6.808l3.978-.072Z" transform="translate(-1128.691 -131.403)" fill="#85a5ff"/>
      <path id="Rectangle_921-2" data-name="Rectangle 921" d="M1266.124,202.109l-4.256-.077v7.044l4.256-.077Z" transform="translate(-1140.79 -131.417)" fill="#85a5ff"/>
      <path id="Rectangle_922-2" data-name="Rectangle 922" d="M1286.261,201.768l-5.292-.1v7.865l5.292-.1Z" transform="translate(-1182.662 -131.467)" fill="#00feec"/>
      <path id="Rectangle_923-2" data-name="Rectangle 923" d="M1302.451,201.889l-5.655-.09v7.75l5.655-.095Z" transform="translate(-1216.859 -131.449)" fill="#85a5ff"/>
      <path id="Rectangle_924-2" data-name="Rectangle 924" d="M1321.777,201.17l-7.382-.133v9.31l7.382-.133Z" transform="translate(-1256.209 -131.554)" fill="#85a5ff"/>
      <path id="Rectangle_925-3" data-name="Rectangle 925" d="M1332.8,200.986l-8.1-.146V210.6l8.1-.146Z" transform="translate(-1278.962 -131.581)" fill="#85a5ff"/>
      <path id="Rectangle_926-2" data-name="Rectangle 926" d="M1249.626,193.713l-3.179-.238v6.952l3.179.113Z" transform="translate(-1106.747 -132.596)" fill="#85a5ff"/>
      <path id="Union_6-2" data-name="Union 6" d="M1255.045,200.171v-6.586l-3.883-.28v6.726Zm3.725.134v-6.451l-3.725-.269v6.586Z" transform="translate(-1121.256 -132.62)" fill="#85a5ff"/>
      <path id="Rectangle_929-2" data-name="Rectangle 929" d="M1266.124,193.052l-4.256-.307v7.044l4.256.153Z" transform="translate(-1140.79 -132.697)" fill="#85a5ff"/>
      <path id="Rectangle_930-2" data-name="Rectangle 930" d="M1272.686,192.136l-4.984-.373v7.973l4.984.178Z" transform="translate(-1153.991 -132.832)" fill="#85a5ff"/>
      <path id="Rectangle_931-2" data-name="Rectangle 931" d="M1279.045,192.174l-4.908-.354v7.571l4.908.177Z" transform="translate(-1167.672 -132.824)" fill="#85a5ff"/>
      <path id="Rectangle_932-2" data-name="Rectangle 932" d="M1286.261,191.685l-5.292-.381v7.865l5.292.191Z" transform="translate(-1182.662 -132.896)" fill="#00feec"/>
      <path id="Rectangle_933-2" data-name="Rectangle 933" d="M1294.061,191.158l-5.722-.412v8.182l5.722.206Z" transform="translate(-1198.846 -132.972)" fill="#85a5ff"/>
      <path id="Rectangle_934-2" data-name="Rectangle 934" d="M1299.393,190.8l-6.025-.434v8.4l6.025.217Z" transform="translate(-1209.9 -133.025)" fill="#ff4d4f"/>
      <path id="Rectangle_935-2" data-name="Rectangle 935" d="M1311.723,189.969l-6.756-.487v8.9l6.756.243Z" transform="translate(-1235.429 -133.147)" fill="#85a5ff"/>
      <path id="Rectangle_936-2" data-name="Rectangle 936" d="M1321.777,189.3l-7.382-.532v9.31l7.382.266Z" transform="translate(-1256.209 -133.246)" fill="#85a5ff"/>
      <path id="Rectangle_937-2" data-name="Rectangle 937" d="M1332.8,188.559l-8.1-.583v9.758l8.1.292Z" transform="translate(-1278.962 -133.354)" fill="#e4e4e4"/>
      <path id="Rectangle_938-3" data-name="Rectangle 938" d="M1344.283,187.033l-8.1-.607v11.156l8.1.289Z" transform="translate(-1303.506 -133.568)" fill="#85a5ff"/>
      <path id="Rectangle_939-3" data-name="Rectangle 939" d="M1358.39,186.86l-9.885-.712v10.8l9.885.356Z" transform="translate(-1331.634 -133.606)" fill="#00feec"/>
      <path id="Rectangle_940-2" data-name="Rectangle 940" d="M1373.354,185.872l-11.009-.793v11.406l11.009.4Z" transform="translate(-1362.345 -133.753)" fill="#85a5ff"/>
      <path id="Rectangle_941-2" data-name="Rectangle 941" d="M1249.626,185.733l-3.179-.4v6.952l3.179.28Z" transform="translate(-1106.747 -133.719)" fill="#85a5ff"/>
      <path id="Rectangle_942-2" data-name="Rectangle 942" d="M1254.887,185.336l-3.726-.47v6.586l3.726.336Z" transform="translate(-1117.37 -133.783)" fill="#85a5ff"/>
      <path id="Rectangle_943-2" data-name="Rectangle 943" d="M1260.316,184.687l-3.978-.5v6.808l3.978.358Z" transform="translate(-1128.691 -133.876)" fill="#ff4d4f"/>
      <path id="Rectangle_944-2" data-name="Rectangle 944" d="M1266.124,183.995l-4.256-.537V190.5l4.256.383Z" transform="translate(-1140.79 -133.977)" fill="#85a5ff"/>
      <path id="Rectangle_945-2" data-name="Rectangle 945" d="M1274.7,182.973l-4.684-.591v7.394l4.684.422Z" transform="translate(-1158.648 -134.125)" fill="#85a5ff"/>
      <path id="Rectangle_946-2" data-name="Rectangle 946" d="M1279.045,182.458l-4.908-.619v7.571l4.908.442Z" transform="translate(-1167.672 -134.2)" fill="#00feec"/>
      <path id="Rectangle_947-2" data-name="Rectangle 947" d="M1286.261,181.6l-5.292-.667V188.8l5.292.477Z" transform="translate(-1182.662 -134.324)" fill="#85a5ff"/>
      <path id="Rectangle_948-2" data-name="Rectangle 948" d="M1294.061,180.68l-5.722-.721v8.182l5.722.515Z" transform="translate(-1198.846 -134.459)" fill="#85a5ff"/>
      <path id="Rectangle_949-2" data-name="Rectangle 949" d="M1302.451,179.361l-5.655-.72v9.3l5.655.5Z" transform="translate(-1216.859 -134.641)" fill="#85a5ff"/>
      <path id="Rectangle_950-2" data-name="Rectangle 950" d="M1308.928,178.751l-7.162-.912v9.581l7.162.63Z" transform="translate(-1228.991 -134.751)" fill="#00feec"/>
      <path id="Rectangle_951-2" data-name="Rectangle 951" d="M1321.777,177.42l-7.382-.931v9.31l7.382.665Z" transform="translate(-1256.209 -134.937)" fill="#85a5ff"/>
      <path id="Rectangle_952-2" data-name="Rectangle 952" d="M1332.8,176.131l-8.1-1.021v9.758l8.1.729Z" transform="translate(-1278.962 -135.127)" fill="#85a5ff"/>
      <path id="Rectangle_953-2" data-name="Rectangle 953" d="M1344.283,174.384l-8.1-1.031v11.156l8.1.713Z" transform="translate(-1303.506 -135.369)" fill="#ccebff"/>
      <path id="Rectangle_954-3" data-name="Rectangle 954" d="M1358.39,173.158l-9.885-1.246v10.8l9.885.89Z" transform="translate(-1331.634 -135.568)" fill="#85a5ff"/>
      <path id="Rectangle_955-3" data-name="Rectangle 955" d="M1373.354,171.43l-11.009-1.388v11.406l11.009.991Z" transform="translate(-1362.345 -135.826)" fill="#85a5ff"/>
      <path id="Rectangle_956-2" data-name="Rectangle 956" d="M1249.626,177.753l-3.179-.571v5.793l3.179.467Z" transform="translate(-1106.747 -134.842)" fill="#85a5ff"/>
      <path id="Rectangle_957-2" data-name="Rectangle 957" d="M1260.316,175.928l-3.978-.716v6.808l3.978.573Z" transform="translate(-1128.691 -135.113)" fill="#85a5ff"/>
      <path id="Rectangle_958-2" data-name="Rectangle 958" d="M1266.124,174.938l-4.256-.767v7.044l4.256.613Z" transform="translate(-1140.79 -135.256)" fill="#85a5ff"/>
      <path id="Rectangle_959-2" data-name="Rectangle 959" d="M1272.686,173.973l-4.984-.9v6.644l4.984.732Z" transform="translate(-1153.991 -135.407)" fill="#85a5ff"/>
      <path id="Rectangle_960-2" data-name="Rectangle 960" d="M1279.045,172.743l-4.908-.884v7.571l4.908.707Z" transform="translate(-1167.672 -135.575)" fill="#00feec"/>
      <path id="Rectangle_961-2" data-name="Rectangle 961" d="M1286.261,171.521l-5.292-.953v7.865l5.292.762Z" transform="translate(-1182.662 -135.753)" fill="#85a5ff"/>
      <path id="Rectangle_962-2" data-name="Rectangle 962" d="M1294.061,170.2l-5.722-1.031v8.182l5.722.824Z" transform="translate(-1198.846 -135.945)" fill="#ff4d4f"/>
      <path id="Rectangle_963-2" data-name="Rectangle 963" d="M1302.451,168.759l-5.655-1.016v7.75l5.655.831Z" transform="translate(-1216.859 -136.142)" fill="#85a5ff"/>
      <path id="Rectangle_964-2" data-name="Rectangle 964" d="M1311.723,167.231l-6.756-1.217v8.9l6.756.973Z" transform="translate(-1235.429 -136.381)" fill="#85a5ff"/>
      <path id="Rectangle_965-2" data-name="Rectangle 965" d="M1321.777,165.546l-7.382-1.329v9.31l7.382,1.064Z" transform="translate(-1256.209 -136.628)" fill="#00feec"/>
      <path id="Rectangle_966-3" data-name="Rectangle 966" d="M1332.8,163.706l-8.1-1.459v9.758l8.1,1.167Z" transform="translate(-1278.962 -136.9)" fill="#ff4d4f"/>
      <path id="Rectangle_967-3" data-name="Rectangle 967" d="M1344.283,161.734l-8.1-1.456v9.3l8.1,1.19Z" transform="translate(-1303.506 -137.171)" fill="#85a5ff"/>
      <path id="Rectangle_968-2" data-name="Rectangle 968" d="M1260.316,167.168l-3.978-.931v6.808l3.978.788Z" transform="translate(-1128.691 -136.35)" fill="#85a5ff"/>
      <path id="Rectangle_969-2" data-name="Rectangle 969" d="M1286.261,161.438l-5.292-1.239v7.865l5.292,1.048Z" transform="translate(-1182.662 -137.182)" fill="#85a5ff"/>
      <path id="Rectangle_970-2" data-name="Rectangle 970" d="M1294.061,159.725l-5.722-1.34v8.182l5.722,1.134Z" transform="translate(-1198.846 -137.432)" fill="#85a5ff"/>
      <path id="Rectangle_971-2" data-name="Rectangle 971" d="M1311.723,155.861l-6.756-1.582v8.9l6.756,1.339Z" transform="translate(-1235.429 -137.998)" fill="#85a5ff"/>
      <path id="Rectangle_972-3" data-name="Rectangle 972" d="M1332.8,151.278l-8.1-1.9v9.758l8.1,1.6Z" transform="translate(-1278.962 -138.673)" fill="#85a5ff"/>
      <path id="Rectangle_973-2" data-name="Rectangle 973" d="M1344.283,149.085l-8.1-1.88v9.3l8.1,1.615Z" transform="translate(-1303.506 -138.973)" fill="#00feec"/>
      <path id="Rectangle_974-3" data-name="Rectangle 974" d="M1358.39,145.756l-9.885-2.314v10.8l9.885,1.958Z" transform="translate(-1331.634 -139.491)" fill="#85a5ff"/>
      <path id="Rectangle_975-3" data-name="Rectangle 975" d="M1373.354,142.547l-11.009-2.578v11.406l11.009,2.181Z" transform="translate(-1362.345 -139.97)" fill="#85a5ff"/>
    </g>
    <path id="Path_493" data-name="Path 493" d="M-3360.614,949h-145.707l-135.386,61.742" transform="translate(3653.894 -751.925)" fill="none" stroke="#fff" stroke-width="1" opacity="0.24"/>
    <path id="Path_494" data-name="Path 494" d="M-3409.911,949h-145.707l-86.089,49.666" transform="translate(3709.192 -739.925)" fill="none" stroke="#fff" stroke-width="1" opacity="0.24"/>
  </g>
</svg>
