<svg xmlns="http://www.w3.org/2000/svg" width="682.327" height="259.612" viewBox="0 0 682.327 259.612">
  <g id="dashboard-graphici" transform="translate(-822.247 -91.585)">
    <rect id="Rectangle_879" data-name="Rectangle 879" width="6.259" height="6.259" transform="translate(1088.694 221.654)" fill="#85a5ff" opacity="0.2"/>
    <rect id="Rectangle_880" data-name="Rectangle 880" width="6" height="6" transform="translate(1168 264)" fill="#85a5ff" opacity="0.7"/>
    <rect id="Rectangle_882" data-name="Rectangle 882" width="6.259" height="6.259" transform="translate(1201.814 266.654)" fill="#85a5ff"/>
    <rect id="Rectangle_893" data-name="Rectangle 893" width="6.259" height="6.259" transform="translate(1186.474 266.265)" fill="#85a5ff"/>
    <rect id="Rectangle_895" data-name="Rectangle 895" width="6.259" height="6.259" transform="translate(1201.814 257.265)" fill="#85a5ff"/>
    <rect id="Rectangle_906" data-name="Rectangle 906" width="6.259" height="6.259" transform="translate(1145.474 250.876)" fill="#85a5ff"/>
    <rect id="Rectangle_907" data-name="Rectangle 907" width="6" height="6" transform="translate(1189 247)" fill="#85a5ff"/>
    <rect id="Rectangle_917" data-name="Rectangle 917" width="6.259" height="6.259" transform="translate(1109.474 250.487)" fill="#85a5ff" opacity="0.3"/>
    <rect id="Rectangle_918" data-name="Rectangle 918" width="6" height="5" transform="translate(1205 239)" fill="#85a5ff"/>
    <rect id="Rectangle_925" data-name="Rectangle 925" width="6.259" height="6.259" transform="translate(1162.474 228.099)" fill="#85a5ff" opacity="0.7"/>
    <rect id="Rectangle_938" data-name="Rectangle 938" width="6" height="7" transform="translate(1146 213)" fill="#85a5ff" opacity="0.4"/>
    <rect id="Rectangle_939" data-name="Rectangle 939" width="6.259" height="6.259" transform="translate(1205.034 221.71)" fill="#85a5ff"/>
    <rect id="Rectangle_954" data-name="Rectangle 954" width="6.259" height="6.259" transform="translate(1192.034 210.321)" fill="#85a5ff"/>
    <rect id="Rectangle_955" data-name="Rectangle 955" width="6.259" height="6.259" transform="translate(1201.814 210.321)" fill="#85a5ff"/>
    <rect id="Rectangle_966" data-name="Rectangle 966" width="6.259" height="6.259" transform="translate(1127.474 191.932)" fill="#85a5ff" opacity="0.3"/>
    <rect id="Rectangle_967" data-name="Rectangle 967" width="6" height="6" transform="translate(1182 201)" fill="#85a5ff"/>
    <rect id="Rectangle_972" data-name="Rectangle 972" width="6.259" height="6.259" transform="translate(1164.474 192.543)" fill="#85a5ff"/>
    <rect id="Rectangle_974" data-name="Rectangle 974" width="6.259" height="6.259" transform="translate(1182.034 166.543)" fill="#85a5ff" opacity="0.5"/>
    <rect id="Rectangle_975" data-name="Rectangle 975" width="6.259" height="6.259" transform="translate(1201.814 191.543)" fill="#85a5ff"/>
    <g id="Group_791" data-name="Group 791" transform="translate(1202.401 163.455)">
      <g id="Group_502" data-name="Group 502" transform="translate(14.792 0)">
        <g id="Group_500" data-name="Group 500" transform="translate(0)">
          <g id="Group_499" data-name="Group 499" transform="translate(0 0)" opacity="0.7">
            <g id="Group_501" data-name="Group 501" transform="translate(0 28.089)">
              <rect id="Rectangle_871" data-name="Rectangle 871" width="6" height="6" transform="translate(-0.193 75.457)" fill="#85a5ff"/>
              <path id="Union_7" data-name="Union 7" d="M6.26,6.259V0h6.259V6.259ZM0,6.259V0H6.26V6.259Z" transform="translate(19.261 75.11)" fill="#85a5ff" stroke="rgba(0,0,0,0)" stroke-miterlimit="10" stroke-width="1"/>
              <rect id="Rectangle_874" data-name="Rectangle 874" width="7" height="6" transform="translate(38.807 75.457)" fill="#85a5ff"/>
              <rect id="Rectangle_875" data-name="Rectangle 875" width="6.259" height="6.259" transform="translate(48.601 75.11)" fill="#85a5ff"/>
              <rect id="Rectangle_876" data-name="Rectangle 876" width="6.259" height="6.259" transform="translate(58.381 75.11)" fill="#85a5ff"/>
              <rect id="Rectangle_877" data-name="Rectangle 877" width="5" height="6" transform="translate(78.807 75.457)" fill="#85a5ff"/>
              <rect id="Rectangle_878" data-name="Rectangle 878" width="6.259" height="6.259" transform="translate(87.721 75.11)" fill="#85a5ff"/>
              <rect id="Rectangle_879-2" data-name="Rectangle 879" width="6.259" height="6.259" transform="translate(97.501 75.11)" fill="#85a5ff"/>
              <rect id="Rectangle_880-2" data-name="Rectangle 880" width="6" height="6" transform="translate(116.807 75.457)" fill="#85a5ff"/>
              <rect id="Rectangle_881" data-name="Rectangle 881" width="6.259" height="6.259" transform="translate(126.841 75.11)" fill="#85a5ff"/>
              <rect id="Rectangle_882-2" data-name="Rectangle 882" width="6.259" height="6.259" transform="translate(136.621 75.11)" fill="#85a5ff"/>
              <rect id="Rectangle_883" data-name="Rectangle 883" width="6" height="7" transform="translate(-0.193 65.457)" fill="#85a5ff"/>
              <rect id="Rectangle_884" data-name="Rectangle 884" width="6.259" height="6.259" transform="translate(9.481 65.722)" fill="#85a5ff"/>
              <rect id="Rectangle_885" data-name="Rectangle 885" width="6.259" height="6.259" transform="translate(19.261 65.722)" fill="#85a5ff"/>
              <rect id="Rectangle_886" data-name="Rectangle 886" width="6.259" height="6.259" transform="translate(29.041 65.722)" fill="#85a5ff"/>
              <path id="Union_8" data-name="Union 8" d="M6.26,6.259V0h6.259V6.259ZM0,6.259V0H6.26V6.259Z" transform="translate(42.341 65.721)" fill="#85a5ff" stroke="rgba(0,0,0,0)" stroke-miterlimit="10" stroke-width="1"/>
              <rect id="Rectangle_889" data-name="Rectangle 889" width="6.259" height="6.259" transform="translate(58.381 65.722)" fill="#85a5ff"/>
              <rect id="Rectangle_890" data-name="Rectangle 890" width="6.259" height="6.259" transform="translate(68.161 65.722)" fill="#85a5ff"/>
              <rect id="Rectangle_891" data-name="Rectangle 891" width="5" height="7" transform="translate(78.807 65.457)" fill="#85a5ff"/>
              <rect id="Rectangle_892" data-name="Rectangle 892" width="6.259" height="6.259" transform="translate(97.501 65.722)" fill="#85a5ff"/>
              <rect id="Rectangle_893-2" data-name="Rectangle 893" width="6.259" height="6.259" transform="translate(107.281 65.722)" fill="#85a5ff"/>
              <rect id="Rectangle_894" data-name="Rectangle 894" width="6.259" height="6.259" transform="translate(126.841 65.722)" fill="#85a5ff"/>
              <rect id="Rectangle_895-2" data-name="Rectangle 895" width="6.259" height="6.259" transform="translate(136.621 65.722)" fill="#85a5ff"/>
              <rect id="Rectangle_896" data-name="Rectangle 896" width="6.259" height="6.259" transform="translate(9.481 56.333)" fill="#85a5ff"/>
              <rect id="Rectangle_897" data-name="Rectangle 897" width="6.259" height="6.259" transform="translate(19.261 56.333)" fill="#85a5ff"/>
              <rect id="Rectangle_898" data-name="Rectangle 898" width="6.259" height="6.259" transform="translate(29.041 56.333)" fill="#85a5ff"/>
              <rect id="Rectangle_899" data-name="Rectangle 899" width="7" height="6" transform="translate(38.807 56.457)" fill="#85a5ff"/>
              <rect id="Rectangle_900" data-name="Rectangle 900" width="6.259" height="6.259" transform="translate(48.601 56.333)" fill="#85a5ff"/>
              <rect id="Rectangle_901" data-name="Rectangle 901" width="6.259" height="6.259" transform="translate(58.381 56.333)" fill="#85a5ff"/>
              <rect id="Rectangle_902" data-name="Rectangle 902" width="6.259" height="6.259" transform="translate(68.161 56.333)" fill="#85a5ff"/>
              <rect id="Rectangle_903" data-name="Rectangle 903" width="5" height="6" transform="translate(78.807 56.457)" fill="#85a5ff"/>
              <rect id="Rectangle_904" data-name="Rectangle 904" width="6.259" height="6.259" transform="translate(87.721 56.333)" fill="#85a5ff"/>
              <rect id="Rectangle_905" data-name="Rectangle 905" width="6.259" height="6.259" transform="translate(97.501 56.333)" fill="#85a5ff"/>
              <rect id="Rectangle_906-2" data-name="Rectangle 906" width="6.259" height="6.259" transform="translate(107.281 56.333)" fill="#85a5ff"/>
              <rect id="Rectangle_907-2" data-name="Rectangle 907" width="6" height="6" transform="translate(116.807 56.457)" fill="#85a5ff"/>
              <rect id="Rectangle_908" data-name="Rectangle 908" width="6" height="5" transform="translate(-0.193 47.457)" fill="#85a5ff"/>
              <rect id="Rectangle_909" data-name="Rectangle 909" width="6.259" height="6.259" transform="translate(9.481 46.944)" fill="#85a5ff"/>
              <rect id="Rectangle_910" data-name="Rectangle 910" width="6.259" height="6.259" transform="translate(29.041 46.944)" fill="#85a5ff"/>
              <rect id="Rectangle_911" data-name="Rectangle 911" width="7" height="5" transform="translate(38.807 47.457)" fill="#85a5ff"/>
              <rect id="Rectangle_912" data-name="Rectangle 912" width="6.259" height="6.259" transform="translate(48.601 46.944)" fill="#85a5ff"/>
              <rect id="Rectangle_913" data-name="Rectangle 913" width="6.259" height="6.259" transform="translate(58.381 46.944)" fill="#85a5ff"/>
              <rect id="Rectangle_914" data-name="Rectangle 914" width="6.259" height="6.259" transform="translate(68.161 46.944)" fill="#85a5ff"/>
              <rect id="Rectangle_915" data-name="Rectangle 915" width="6.259" height="6.259" transform="translate(87.721 46.944)" fill="#85a5ff"/>
              <rect id="Rectangle_916" data-name="Rectangle 916" width="6.259" height="6.259" transform="translate(97.501 46.944)" fill="#85a5ff"/>
              <rect id="Rectangle_917-2" data-name="Rectangle 917" width="6.259" height="6.259" transform="translate(107.281 46.944)" fill="#85a5ff"/>
              <rect id="Rectangle_918-2" data-name="Rectangle 918" width="6" height="5" transform="translate(116.807 47.457)" fill="#85a5ff"/>
              <rect id="Rectangle_919" data-name="Rectangle 919" width="6.259" height="6.259" transform="translate(9.481 37.555)" fill="#85a5ff"/>
              <rect id="Rectangle_920" data-name="Rectangle 920" width="6.259" height="6.259" transform="translate(19.261 37.555)" fill="#85a5ff"/>
              <rect id="Rectangle_921" data-name="Rectangle 921" width="6.259" height="6.259" transform="translate(29.041 37.555)" fill="#85a5ff"/>
              <rect id="Rectangle_922" data-name="Rectangle 922" width="6.259" height="6.259" transform="translate(58.381 37.555)" fill="#85a5ff"/>
              <rect id="Rectangle_923" data-name="Rectangle 923" width="5" height="6" transform="translate(78.807 37.457)" fill="#85a5ff"/>
              <rect id="Rectangle_924" data-name="Rectangle 924" width="6.259" height="6.259" transform="translate(97.501 37.555)" fill="#85a5ff"/>
              <rect id="Rectangle_925-2" data-name="Rectangle 925" width="6.259" height="6.259" transform="translate(107.281 37.555)" fill="#85a5ff"/>
              <rect id="Rectangle_926" data-name="Rectangle 926" width="6" height="7" transform="translate(-0.193 27.457)" fill="#85a5ff"/>
              <path id="Union_6" data-name="Union 6" d="M6.26,6.259V0h6.259V6.259ZM0,6.259V0H6.26V6.259Z" transform="translate(9.481 28.166)" fill="#85a5ff" stroke="rgba(0,0,0,0)" stroke-miterlimit="10" stroke-width="1"/>
              <rect id="Rectangle_929" data-name="Rectangle 929" width="6.259" height="6.259" transform="translate(29.041 28.166)" fill="#85a5ff"/>
              <rect id="Rectangle_930" data-name="Rectangle 930" width="7" height="7" transform="translate(38.807 27.457)" fill="#85a5ff"/>
              <rect id="Rectangle_931" data-name="Rectangle 931" width="6.259" height="6.259" transform="translate(48.601 28.166)" fill="#85a5ff"/>
              <rect id="Rectangle_932" data-name="Rectangle 932" width="6.259" height="6.259" transform="translate(58.381 28.166)" fill="#85a5ff"/>
              <rect id="Rectangle_933" data-name="Rectangle 933" width="6.259" height="6.259" transform="translate(68.161 28.166)" fill="#85a5ff"/>
              <rect id="Rectangle_934" data-name="Rectangle 934" width="6.259" height="6.259" transform="translate(74.42 28.166)" fill="#85a5ff"/>
              <rect id="Rectangle_935" data-name="Rectangle 935" width="6.259" height="6.259" transform="translate(87.721 28.166)" fill="#85a5ff"/>
              <rect id="Rectangle_936" data-name="Rectangle 936" width="6.259" height="6.259" transform="translate(97.501 28.166)" fill="#85a5ff"/>
              <rect id="Rectangle_937" data-name="Rectangle 937" width="6.259" height="6.259" transform="translate(107.281 28.166)" fill="#85a5ff"/>
              <rect id="Rectangle_938-2" data-name="Rectangle 938" width="6" height="7" transform="translate(116.807 27.457)" fill="#85a5ff"/>
              <rect id="Rectangle_939-2" data-name="Rectangle 939" width="6.259" height="6.259" transform="translate(126.841 28.166)" fill="#85a5ff"/>
              <rect id="Rectangle_940" data-name="Rectangle 940" width="6.259" height="6.259" transform="translate(136.621 28.166)" fill="#85a5ff"/>
              <rect id="Rectangle_941" data-name="Rectangle 941" width="6" height="7" transform="translate(-0.193 18.457)" fill="#85a5ff"/>
              <rect id="Rectangle_942" data-name="Rectangle 942" width="6.259" height="6.259" transform="translate(9.481 18.778)" fill="#85a5ff"/>
              <rect id="Rectangle_943" data-name="Rectangle 943" width="6.259" height="6.259" transform="translate(19.261 18.778)" fill="#85a5ff"/>
              <rect id="Rectangle_944" data-name="Rectangle 944" width="6.259" height="6.259" transform="translate(29.041 18.778)" fill="#85a5ff"/>
              <rect id="Rectangle_945" data-name="Rectangle 945" width="6.259" height="6.259" transform="translate(42.342 18.778)" fill="#85a5ff"/>
              <rect id="Rectangle_946" data-name="Rectangle 946" width="6.259" height="6.259" transform="translate(48.601 18.778)" fill="#85a5ff"/>
              <rect id="Rectangle_947" data-name="Rectangle 947" width="6.259" height="6.259" transform="translate(58.381 18.778)" fill="#85a5ff"/>
              <rect id="Rectangle_948" data-name="Rectangle 948" width="6.259" height="6.259" transform="translate(68.161 18.778)" fill="#85a5ff"/>
              <rect id="Rectangle_949" data-name="Rectangle 949" width="5" height="7" transform="translate(78.807 18.457)" fill="#85a5ff"/>
              <rect id="Rectangle_950" data-name="Rectangle 950" width="7" height="7" transform="translate(83.807 18.457)" fill="#85a5ff"/>
              <rect id="Rectangle_951" data-name="Rectangle 951" width="6.259" height="6.259" transform="translate(97.501 18.778)" fill="#85a5ff"/>
              <rect id="Rectangle_952" data-name="Rectangle 952" width="6.259" height="6.259" transform="translate(107.281 18.778)" fill="#85a5ff"/>
              <rect id="Rectangle_953" data-name="Rectangle 953" width="6" height="7" transform="translate(116.807 18.457)" fill="#85a5ff"/>
              <rect id="Rectangle_954-2" data-name="Rectangle 954" width="6.259" height="6.259" transform="translate(126.841 18.778)" fill="#85a5ff"/>
              <rect id="Rectangle_955-2" data-name="Rectangle 955" width="6.259" height="6.259" transform="translate(136.621 18.778)" fill="#85a5ff"/>
              <rect id="Rectangle_956" data-name="Rectangle 956" width="6" height="6" transform="translate(-0.193 9.457)" fill="#85a5ff"/>
              <rect id="Rectangle_957" data-name="Rectangle 957" width="6.259" height="6.259" transform="translate(19.261 9.389)" fill="#85a5ff"/>
              <rect id="Rectangle_958" data-name="Rectangle 958" width="6.259" height="6.259" transform="translate(29.041 9.389)" fill="#85a5ff"/>
              <rect id="Rectangle_959" data-name="Rectangle 959" width="7" height="6" transform="translate(38.807 9.457)" fill="#85a5ff"/>
              <rect id="Rectangle_960" data-name="Rectangle 960" width="6.259" height="6.259" transform="translate(48.601 9.389)" fill="#85a5ff"/>
              <rect id="Rectangle_961" data-name="Rectangle 961" width="6.259" height="6.259" transform="translate(58.381 9.389)" fill="#85a5ff"/>
              <rect id="Rectangle_962" data-name="Rectangle 962" width="6.259" height="6.259" transform="translate(68.161 9.389)" fill="#85a5ff"/>
              <rect id="Rectangle_963" data-name="Rectangle 963" width="5" height="6" transform="translate(78.807 9.457)" fill="#85a5ff"/>
              <rect id="Rectangle_964" data-name="Rectangle 964" width="6.259" height="6.259" transform="translate(87.721 9.389)" fill="#85a5ff"/>
              <rect id="Rectangle_965" data-name="Rectangle 965" width="6.259" height="6.259" transform="translate(97.501 9.389)" fill="#85a5ff"/>
              <rect id="Rectangle_966-2" data-name="Rectangle 966" width="6.259" height="6.259" transform="translate(107.281 9.389)" fill="#85a5ff"/>
              <rect id="Rectangle_967-2" data-name="Rectangle 967" width="6" height="6" transform="translate(116.807 9.457)" fill="#85a5ff"/>
              <rect id="Rectangle_968" data-name="Rectangle 968" width="6.259" height="6.259" transform="translate(19.261)" fill="#85a5ff"/>
              <rect id="Rectangle_969" data-name="Rectangle 969" width="6.259" height="6.259" transform="translate(58.381)" fill="#85a5ff"/>
              <rect id="Rectangle_970" data-name="Rectangle 970" width="6.259" height="6.259" transform="translate(68.161)" fill="#85a5ff"/>
              <rect id="Rectangle_971" data-name="Rectangle 971" width="6.259" height="6.259" transform="translate(87.721)" fill="#85a5ff"/>
              <rect id="Rectangle_972-2" data-name="Rectangle 972" width="6.259" height="6.259" transform="translate(107.281)" fill="#85a5ff"/>
              <rect id="Rectangle_973" data-name="Rectangle 973" width="6" height="6" transform="translate(116.807 0.457)" fill="#85a5ff"/>
              <rect id="Rectangle_974-2" data-name="Rectangle 974" width="6.259" height="6.259" transform="translate(126.841)" fill="#85a5ff"/>
              <rect id="Rectangle_975-2" data-name="Rectangle 975" width="6.259" height="6.259" transform="translate(136.621)" fill="#85a5ff"/>
            </g>
            <g id="Rectangle_870" data-name="Rectangle 870" transform="translate(37.807 -0.455)" fill="#f0f5ff" stroke="#85a5ff" stroke-width="2">
              <rect width="68" height="94" rx="6" stroke="none"/>
              <rect x="1" y="1" width="66" height="92" rx="5" fill="none"/>
            </g>
          </g>
        </g>
        <path id="Path_203" data-name="Path 203" d="M1575.576,3537.371h20.29" transform="translate(-1524.9 -3513.68)" fill="none" stroke="#85a5ff" stroke-width="1"/>
        <path id="Path_204" data-name="Path 204" d="M1575.576,3537.371h20.29" transform="translate(-1524.9 -3505.002)" fill="none" stroke="#85a5ff" stroke-width="1"/>
        <path id="Path_205" data-name="Path 205" d="M1575.576,3537.371h20.29" transform="translate(-1524.9 -3496.324)" fill="none" stroke="#85a5ff" stroke-width="1"/>
        <g id="Rectangle_982" data-name="Rectangle 982" transform="translate(75.807 19.545)" fill="#fff" stroke="#85a5ff" stroke-width="1">
          <rect width="17" height="23" stroke="none"/>
          <rect x="0.5" y="0.5" width="16" height="22" fill="none"/>
        </g>
      </g>
      <rect id="Rectangle_985" data-name="Rectangle 985" width="7" height="5" transform="translate(53.599 75.545)" fill="#3964e6"/>
      <rect id="Rectangle_986" data-name="Rectangle 986" width="6.259" height="6.259" transform="translate(63.393 75.033)" fill="#3964e6"/>
      <rect id="Rectangle_987" data-name="Rectangle 987" width="6.259" height="6.259" transform="translate(73.173 75.033)" fill="#3964e6"/>
      <rect id="Rectangle_988" data-name="Rectangle 988" width="6.259" height="6.259" transform="translate(82.953 75.033)" fill="#3964e6"/>
      <rect id="Rectangle_989" data-name="Rectangle 989" width="6.259" height="6.259" transform="translate(102.513 75.033)" fill="#3964e6"/>
      <rect id="Rectangle_990" data-name="Rectangle 990" width="6.259" height="6.259" transform="translate(112.293 75.033)" fill="#3964e6"/>
      <rect id="Rectangle_992" data-name="Rectangle 992" width="6.259" height="6.259" transform="translate(73.173 65.644)" fill="#3964e6"/>
      <rect id="Rectangle_993" data-name="Rectangle 993" width="5" height="6" transform="translate(93.599 65.545)" fill="#3964e6"/>
      <rect id="Rectangle_994" data-name="Rectangle 994" width="6.259" height="6.259" transform="translate(112.293 65.644)" fill="#3964e6"/>
      <rect id="Rectangle_996" data-name="Rectangle 996" width="7" height="7" transform="translate(53.599 55.545)" fill="#3964e6"/>
      <rect id="Rectangle_997" data-name="Rectangle 997" width="6.259" height="6.259" transform="translate(63.393 56.255)" fill="#3964e6"/>
      <rect id="Rectangle_998" data-name="Rectangle 998" width="6.259" height="6.259" transform="translate(73.173 56.255)" fill="#3964e6"/>
      <path id="Union_5" data-name="Union 5" d="M6.259,6.259V0h6.259V6.259ZM0,6.259V0H6.259V6.259Z" transform="translate(82.953 56.255)" fill="#3964e6" stroke="rgba(0,0,0,0)" stroke-miterlimit="10" stroke-width="1"/>
      <rect id="Rectangle_1001" data-name="Rectangle 1001" width="6.259" height="6.259" transform="translate(102.513 56.255)" fill="#3964e6"/>
      <rect id="Rectangle_1002" data-name="Rectangle 1002" width="6.259" height="6.259" transform="translate(112.293 56.255)" fill="#3964e6"/>
    </g>
    <g id="Group_501-2" data-name="Group 501" transform="translate(1361.694 160.041)">
      <path id="Rectangle_871-2" data-name="Rectangle 871" d="M1246.447,235.684l3.179.636v5.793l-3.179-.74Z" transform="translate(-1246.447 -126.78)" fill="#85a5ff"/>
      <path id="Union_7-2" data-name="Union 7" d="M1260.317,244.939v-6.806l4.152.823v6.955Zm-3.978-.931v-6.664l3.978.789v6.806Z" transform="translate(-1245.084 -126.551)" fill="#85a5ff"/>
      <path id="Rectangle_874-2" data-name="Rectangle 874" d="M1267.7,239.936l4.984,1v6.644l-4.984-1.16Z" transform="translate(-1243.518 -126.193)" fill="#85a5ff"/>
      <path id="Rectangle_875-2" data-name="Rectangle 875" d="M1274.137,240.869l4.908.972v7.571l-4.908-1.149Z" transform="translate(-1242.631 -126.065)" fill="#85a5ff"/>
      <path id="Rectangle_876-2" data-name="Rectangle 876" d="M1280.97,242.223l5.292,1.048v7.865l-5.292-1.239Z" transform="translate(-1241.689 -125.878)" fill="#85a5ff"/>
      <path id="Rectangle_877-2" data-name="Rectangle 877" d="M1296.8,245.757l5.655,1.131v7.75l-5.655-1.317Z" transform="translate(-1239.509 -125.391)" fill="#85a5ff"/>
      <path id="Rectangle_878-2" data-name="Rectangle 878" d="M1304.967,246.977l6.756,1.338v8.9l-6.756-1.582Z" transform="translate(-1238.382 -125.223)" fill="#85a5ff"/>
      <path id="Rectangle_879-3" data-name="Rectangle 879" d="M1314.4,248.845l7.382,1.462v9.31l-7.382-1.728Z" transform="translate(-1237.083 -124.966)" fill="#85a5ff"/>
      <path id="Rectangle_880-3" data-name="Rectangle 880" d="M1336.183,253.638l8.1,1.621v9.3l-8.1-1.886Z" transform="translate(-1234.081 -124.305)" fill="#85a5ff"/>
      <path id="Rectangle_881-2" data-name="Rectangle 881" d="M1348.505,255.6l9.885,1.958v10.8l-9.885-2.314Z" transform="translate(-1232.382 -124.035)" fill="#85a5ff"/>
      <path id="Rectangle_882-3" data-name="Rectangle 882" d="M1362.346,258.344l11.009,2.181v11.406l-11.009-2.578Z" transform="translate(-1230.475 -123.657)" fill="#85a5ff"/>
      <path id="Rectangle_883-2" data-name="Rectangle 883" d="M1246.447,226.684l3.179.449v6.952l-3.179-.574Z" transform="translate(-1246.447 -128.02)" fill="#85a5ff"/>
      <path id="Rectangle_884-2" data-name="Rectangle 884" d="M1251.161,227.811l3.726.537v6.586l-3.726-.671Z" transform="translate(-1245.797 -127.865)" fill="#85a5ff"/>
      <path id="Rectangle_885-2" data-name="Rectangle 885" d="M1256.338,228.557l3.978.573v6.808l-3.978-.716Z" transform="translate(-1245.084 -127.762)" fill="#85a5ff"/>
      <path id="Rectangle_886-2" data-name="Rectangle 886" d="M1261.868,229.353l4.256.613v7.044l-4.256-.767Z" transform="translate(-1244.322 -127.652)" fill="#85a5ff"/>
      <path id="Union_8-2" data-name="Union 8" d="M1274.705,238.6V231.2l4.906.708v7.569Zm-4.683-.844v-7.224l4.683.675V238.6Z" transform="translate(-1243.198 -127.49)" fill="#85a5ff"/>
      <path id="Rectangle_889-2" data-name="Rectangle 889" d="M1280.97,232.106l5.292.762v7.865l-5.292-.953Z" transform="translate(-1241.689 -127.273)" fill="#85a5ff"/>
      <path id="Rectangle_890-2" data-name="Rectangle 890" d="M1288.339,233.167l5.722.824v8.182l-5.722-1.031Z" transform="translate(-1240.674 -127.126)" fill="#85a5ff"/>
      <path id="Rectangle_891-2" data-name="Rectangle 891" d="M1296.8,233.79l5.655.8v9.3l-5.655-1.02Z" transform="translate(-1239.509 -127.04)" fill="#85a5ff"/>
      <path id="Rectangle_892-2" data-name="Rectangle 892" d="M1314.4,236.922l7.382,1.064v9.31l-7.382-1.329Z" transform="translate(-1237.083 -126.609)" fill="#85a5ff"/>
      <path id="Rectangle_893-3" data-name="Rectangle 893" d="M1324.7,238.407l8.1,1.167v9.758l-8.1-1.459Z" transform="translate(-1235.663 -126.404)" fill="#85a5ff"/>
      <path id="Rectangle_894-2" data-name="Rectangle 894" d="M1348.505,241.836l9.885,1.424v10.8l-9.885-1.78Z" transform="translate(-1232.382 -125.932)" fill="#85a5ff"/>
      <path id="Rectangle_895-3" data-name="Rectangle 895" d="M1362.346,243.83l11.009,1.586v11.406l-11.009-1.983Z" transform="translate(-1230.475 -125.657)" fill="#85a5ff"/>
      <path id="Rectangle_896-2" data-name="Rectangle 896" d="M1251.161,219.305l3.726.336v6.586l-3.726-.47Z" transform="translate(-1245.797 -129.037)" fill="#85a5ff"/>
      <path id="Rectangle_897-2" data-name="Rectangle 897" d="M1256.338,219.771l3.978.358v6.808l-3.978-.5Z" transform="translate(-1245.084 -128.972)" fill="#85a5ff"/>
      <path id="Rectangle_898-2" data-name="Rectangle 898" d="M1261.868,220.269l4.256.383V227.7l-4.256-.537Z" transform="translate(-1244.322 -128.904)" fill="#85a5ff"/>
      <path id="Rectangle_899-2" data-name="Rectangle 899" d="M1267.7,220.57l4.984.442v7.973l-4.984-.638Z" transform="translate(-1243.518 -128.862)" fill="#85a5ff"/>
      <path id="Rectangle_900-2" data-name="Rectangle 900" d="M1274.137,221.374l4.908.442v7.571l-4.908-.619Z" transform="translate(-1242.631 -128.752)" fill="#85a5ff"/>
      <path id="Rectangle_901-2" data-name="Rectangle 901" d="M1280.97,221.99l5.292.477v7.865l-5.292-.667Z" transform="translate(-1241.689 -128.667)" fill="#85a5ff"/>
      <path id="Rectangle_902-2" data-name="Rectangle 902" d="M1288.339,222.653l5.722.515v8.182l-5.722-.721Z" transform="translate(-1240.674 -128.575)" fill="#85a5ff"/>
      <path id="Rectangle_903-2" data-name="Rectangle 903" d="M1296.8,223.153l5.655.5v9.3l-5.655-.724Z" transform="translate(-1239.509 -128.506)" fill="#85a5ff"/>
      <path id="Rectangle_904-2" data-name="Rectangle 904" d="M1304.967,224.151l6.756.608v8.9l-6.756-.852Z" transform="translate(-1238.382 -128.369)" fill="#85a5ff"/>
      <path id="Rectangle_905-2" data-name="Rectangle 905" d="M1314.4,225l7.382.665v9.31l-7.382-.931Z" transform="translate(-1237.083 -128.252)" fill="#85a5ff"/>
      <path id="Rectangle_906-3" data-name="Rectangle 906" d="M1324.7,225.928l8.1.729v9.758l-8.1-1.021Z" transform="translate(-1235.663 -128.124)" fill="#85a5ff"/>
      <path id="Rectangle_907-3" data-name="Rectangle 907" d="M1336.183,226.649l8.1.719v11.156l-8.1-1.037Z" transform="translate(-1234.081 -128.025)" fill="#85a5ff"/>
      <path id="Rectangle_908-2" data-name="Rectangle 908" d="M1246.447,210.684l3.179.116v5.793l-3.179-.22Z" transform="translate(-1246.447 -130.225)" fill="#85a5ff"/>
      <path id="Rectangle_909-2" data-name="Rectangle 909" d="M1251.161,210.8l3.726.134v6.586l-3.726-.268Z" transform="translate(-1245.797 -130.209)" fill="#85a5ff"/>
      <path id="Rectangle_910-2" data-name="Rectangle 910" d="M1261.868,211.184l4.256.153v7.044l-4.256-.307Z" transform="translate(-1244.322 -130.156)" fill="#85a5ff"/>
      <path id="Rectangle_911-2" data-name="Rectangle 911" d="M1267.7,211.457l4.984.181v6.644l-4.984-.345Z" transform="translate(-1243.518 -130.118)" fill="#85a5ff"/>
      <path id="Rectangle_912-2" data-name="Rectangle 912" d="M1274.137,211.626l4.908.177v7.571l-4.908-.354Z" transform="translate(-1242.631 -130.095)" fill="#85a5ff"/>
      <path id="Rectangle_913-2" data-name="Rectangle 913" d="M1280.97,211.872l5.292.191v7.865l-5.292-.381Z" transform="translate(-1241.689 -130.061)" fill="#85a5ff"/>
      <path id="Rectangle_914-2" data-name="Rectangle 914" d="M1288.339,212.138l5.722.206v8.182l-5.722-.412Z" transform="translate(-1240.674 -130.024)" fill="#85a5ff"/>
      <path id="Rectangle_915-2" data-name="Rectangle 915" d="M1304.967,212.737l6.756.243v8.9l-6.756-.487Z" transform="translate(-1238.382 -129.942)" fill="#85a5ff"/>
      <path id="Rectangle_916-2" data-name="Rectangle 916" d="M1314.4,213.076l7.382.266v9.31l-7.382-.532Z" transform="translate(-1237.083 -129.895)" fill="#85a5ff"/>
      <path id="Rectangle_917-3" data-name="Rectangle 917" d="M1324.7,213.447l8.1.292V223.5l-8.1-.583Z" transform="translate(-1235.663 -129.844)" fill="#85a5ff"/>
      <path id="Rectangle_918-3" data-name="Rectangle 918" d="M1336.183,213.948l8.1.295v9.3l-8.1-.56Z" transform="translate(-1234.081 -129.775)" fill="#85a5ff"/>
      <path id="Rectangle_919-2" data-name="Rectangle 919" d="M1251.161,202.3l3.726-.067v6.586l-3.726-.067Z" transform="translate(-1245.797 -131.389)" fill="#85a5ff"/>
      <path id="Rectangle_920-2" data-name="Rectangle 920" d="M1256.338,202.208l3.978-.072v6.808l-3.978-.072Z" transform="translate(-1245.084 -131.403)" fill="#85a5ff"/>
      <path id="Rectangle_921-2" data-name="Rectangle 921" d="M1261.868,202.109l4.256-.077v7.044l-4.256-.077Z" transform="translate(-1244.322 -131.417)" fill="#85a5ff"/>
      <path id="Rectangle_922-2" data-name="Rectangle 922" d="M1280.97,201.768l5.292-.1v7.865l-5.292-.1Z" transform="translate(-1241.689 -131.467)" fill="#85a5ff"/>
      <path id="Rectangle_923-2" data-name="Rectangle 923" d="M1296.8,201.889l5.655-.09v7.75l-5.655-.095Z" transform="translate(-1239.509 -131.449)" fill="#85a5ff"/>
      <path id="Rectangle_924-2" data-name="Rectangle 924" d="M1314.4,201.17l7.382-.133v9.31l-7.382-.133Z" transform="translate(-1237.083 -131.554)" fill="#85a5ff"/>
      <path id="Rectangle_925-3" data-name="Rectangle 925" d="M1324.7,200.986l8.1-.146V210.6l-8.1-.146Z" transform="translate(-1235.663 -131.581)" fill="#85a5ff"/>
      <path id="Rectangle_926-2" data-name="Rectangle 926" d="M1246.447,193.713l3.179-.238v6.952l-3.179.113Z" transform="translate(-1246.447 -132.596)" fill="#85a5ff"/>
      <path id="Union_6-2" data-name="Union 6" d="M1254.887,200.171v-6.586l3.883-.28v6.726Zm-3.725.134v-6.451l3.725-.269v6.586Z" transform="translate(-1245.797 -132.62)" fill="#85a5ff"/>
      <path id="Rectangle_929-2" data-name="Rectangle 929" d="M1261.868,193.052l4.256-.307v7.044l-4.256.153Z" transform="translate(-1244.322 -132.697)" fill="#85a5ff"/>
      <path id="Rectangle_930-2" data-name="Rectangle 930" d="M1267.7,192.136l4.984-.373v7.973l-4.984.178Z" transform="translate(-1243.518 -132.832)" fill="#85a5ff"/>
      <path id="Rectangle_931-2" data-name="Rectangle 931" d="M1274.137,192.174l4.908-.354v7.571l-4.908.177Z" transform="translate(-1242.631 -132.824)" fill="#85a5ff"/>
      <path id="Rectangle_932-2" data-name="Rectangle 932" d="M1280.97,191.685l5.292-.381v7.865l-5.292.191Z" transform="translate(-1241.689 -132.896)" fill="#85a5ff"/>
      <path id="Rectangle_933-2" data-name="Rectangle 933" d="M1288.339,191.158l5.722-.412v8.182l-5.722.206Z" transform="translate(-1240.674 -132.972)" fill="#85a5ff"/>
      <path id="Rectangle_934-2" data-name="Rectangle 934" d="M1293.368,190.8l6.025-.434v8.4l-6.025.217Z" transform="translate(-1239.981 -133.025)" fill="#85a5ff"/>
      <path id="Rectangle_935-2" data-name="Rectangle 935" d="M1304.967,189.969l6.756-.487v8.9l-6.756.243Z" transform="translate(-1238.382 -133.147)" fill="#85a5ff"/>
      <path id="Rectangle_936-2" data-name="Rectangle 936" d="M1314.4,189.3l7.382-.532v9.31l-7.382.266Z" transform="translate(-1237.083 -133.246)" fill="#85a5ff"/>
      <path id="Rectangle_937-2" data-name="Rectangle 937" d="M1324.7,188.559l8.1-.583v9.758l-8.1.292Z" transform="translate(-1235.663 -133.354)" fill="#85a5ff"/>
      <path id="Rectangle_938-3" data-name="Rectangle 938" d="M1336.183,187.033l8.1-.607v11.156l-8.1.289Z" transform="translate(-1234.081 -133.568)" fill="#85a5ff"/>
      <path id="Rectangle_939-3" data-name="Rectangle 939" d="M1348.505,186.86l9.885-.712v10.8l-9.885.356Z" transform="translate(-1232.382 -133.606)" fill="#85a5ff"/>
      <path id="Rectangle_940-2" data-name="Rectangle 940" d="M1362.346,185.872l11.009-.793v11.406l-11.009.4Z" transform="translate(-1230.475 -133.753)" fill="#85a5ff"/>
      <path id="Rectangle_941-2" data-name="Rectangle 941" d="M1246.447,185.733l3.179-.4v6.952l-3.179.28Z" transform="translate(-1246.447 -133.719)" fill="#85a5ff"/>
      <path id="Rectangle_942-2" data-name="Rectangle 942" d="M1251.161,185.336l3.726-.47v6.586l-3.726.336Z" transform="translate(-1245.797 -133.783)" fill="#85a5ff"/>
      <path id="Rectangle_943-2" data-name="Rectangle 943" d="M1256.338,184.687l3.978-.5v6.808l-3.978.358Z" transform="translate(-1245.084 -133.876)" fill="#85a5ff"/>
      <path id="Rectangle_944-2" data-name="Rectangle 944" d="M1261.868,183.995l4.256-.537V190.5l-4.256.383Z" transform="translate(-1244.322 -133.977)" fill="#85a5ff"/>
      <path id="Rectangle_945-2" data-name="Rectangle 945" d="M1270.021,182.973l4.684-.591v7.394l-4.684.422Z" transform="translate(-1243.198 -134.125)" fill="#85a5ff"/>
      <path id="Rectangle_946-2" data-name="Rectangle 946" d="M1274.137,182.458l4.908-.619v7.571l-4.908.442Z" transform="translate(-1242.631 -134.2)" fill="#85a5ff"/>
      <path id="Rectangle_947-2" data-name="Rectangle 947" d="M1280.97,181.6l5.292-.667V188.8l-5.292.477Z" transform="translate(-1241.689 -134.324)" fill="#85a5ff"/>
      <path id="Rectangle_948-2" data-name="Rectangle 948" d="M1288.339,180.68l5.722-.721v8.182l-5.722.515Z" transform="translate(-1240.674 -134.459)" fill="#85a5ff"/>
      <path id="Rectangle_949-2" data-name="Rectangle 949" d="M1296.8,179.361l5.655-.72v9.3l-5.655.5Z" transform="translate(-1239.509 -134.641)" fill="#85a5ff"/>
      <path id="Rectangle_950-2" data-name="Rectangle 950" d="M1301.766,178.751l7.162-.912v9.581l-7.162.63Z" transform="translate(-1238.824 -134.751)" fill="#85a5ff"/>
      <path id="Rectangle_951-2" data-name="Rectangle 951" d="M1314.4,177.42l7.382-.931v9.31l-7.382.665Z" transform="translate(-1237.083 -134.937)" fill="#85a5ff"/>
      <path id="Rectangle_952-2" data-name="Rectangle 952" d="M1324.7,176.131l8.1-1.021v9.758l-8.1.729Z" transform="translate(-1235.663 -135.127)" fill="#85a5ff"/>
      <path id="Rectangle_953-2" data-name="Rectangle 953" d="M1336.183,174.384l8.1-1.031v11.156l-8.1.713Z" transform="translate(-1234.081 -135.369)" fill="#85a5ff"/>
      <path id="Rectangle_954-3" data-name="Rectangle 954" d="M1348.505,173.158l9.885-1.246v10.8l-9.885.89Z" transform="translate(-1232.382 -135.568)" fill="#85a5ff"/>
      <path id="Rectangle_955-3" data-name="Rectangle 955" d="M1362.346,171.43l11.009-1.388v11.406l-11.009.991Z" transform="translate(-1230.475 -135.826)" fill="#85a5ff"/>
      <path id="Rectangle_956-2" data-name="Rectangle 956" d="M1246.447,177.753l3.179-.571v5.793l-3.179.467Z" transform="translate(-1246.447 -134.842)" fill="#85a5ff"/>
      <path id="Rectangle_957-2" data-name="Rectangle 957" d="M1256.338,175.928l3.978-.716v6.808l-3.978.573Z" transform="translate(-1245.084 -135.113)" fill="#85a5ff"/>
      <path id="Rectangle_958-2" data-name="Rectangle 958" d="M1261.868,174.938l4.256-.767v7.044l-4.256.613Z" transform="translate(-1244.322 -135.256)" fill="#85a5ff"/>
      <path id="Rectangle_959-2" data-name="Rectangle 959" d="M1267.7,173.973l4.984-.9v6.644l-4.984.732Z" transform="translate(-1243.518 -135.407)" fill="#85a5ff"/>
      <path id="Rectangle_960-2" data-name="Rectangle 960" d="M1274.137,172.743l4.908-.884v7.571l-4.908.707Z" transform="translate(-1242.631 -135.575)" fill="#85a5ff"/>
      <path id="Rectangle_961-2" data-name="Rectangle 961" d="M1280.97,171.521l5.292-.953v7.865l-5.292.762Z" transform="translate(-1241.689 -135.753)" fill="#85a5ff"/>
      <path id="Rectangle_962-2" data-name="Rectangle 962" d="M1288.339,170.2l5.722-1.031v8.182l-5.722.824Z" transform="translate(-1240.674 -135.945)" fill="#85a5ff"/>
      <path id="Rectangle_963-2" data-name="Rectangle 963" d="M1296.8,168.759l5.655-1.016v7.75l-5.655.831Z" transform="translate(-1239.509 -136.142)" fill="#85a5ff"/>
      <path id="Rectangle_964-2" data-name="Rectangle 964" d="M1304.967,167.231l6.756-1.217v8.9l-6.756.973Z" transform="translate(-1238.382 -136.381)" fill="#85a5ff"/>
      <path id="Rectangle_965-2" data-name="Rectangle 965" d="M1314.4,165.546l7.382-1.329v9.31l-7.382,1.064Z" transform="translate(-1237.083 -136.628)" fill="#85a5ff"/>
      <path id="Rectangle_966-3" data-name="Rectangle 966" d="M1324.7,163.706l8.1-1.459v9.758l-8.1,1.167Z" transform="translate(-1235.663 -136.9)" fill="#85a5ff"/>
      <path id="Rectangle_967-3" data-name="Rectangle 967" d="M1336.183,161.734l8.1-1.456v9.3l-8.1,1.19Z" transform="translate(-1234.081 -137.171)" fill="#85a5ff"/>
      <path id="Rectangle_968-2" data-name="Rectangle 968" d="M1256.338,167.168l3.978-.931v6.808l-3.978.788Z" transform="translate(-1245.084 -136.35)" fill="#85a5ff"/>
      <path id="Rectangle_969-2" data-name="Rectangle 969" d="M1280.97,161.438l5.292-1.239v7.865l-5.292,1.048Z" transform="translate(-1241.689 -137.182)" fill="#85a5ff"/>
      <path id="Rectangle_970-2" data-name="Rectangle 970" d="M1288.339,159.725l5.722-1.34v8.182l-5.722,1.134Z" transform="translate(-1240.674 -137.432)" fill="#85a5ff"/>
      <path id="Rectangle_971-2" data-name="Rectangle 971" d="M1304.967,155.861l6.756-1.582v8.9l-6.756,1.339Z" transform="translate(-1238.382 -137.998)" fill="#85a5ff"/>
      <path id="Rectangle_972-3" data-name="Rectangle 972" d="M1324.7,151.278l8.1-1.9v9.758l-8.1,1.6Z" transform="translate(-1235.663 -138.673)" fill="#85a5ff"/>
      <path id="Rectangle_973-2" data-name="Rectangle 973" d="M1336.183,149.085l8.1-1.88v9.3l-8.1,1.615Z" transform="translate(-1234.081 -138.973)" fill="#85a5ff"/>
      <path id="Rectangle_974-3" data-name="Rectangle 974" d="M1348.505,145.756l9.885-2.314v10.8l-9.885,1.958Z" transform="translate(-1232.382 -139.491)" fill="#85a5ff"/>
      <path id="Rectangle_975-3" data-name="Rectangle 975" d="M1362.346,142.547l11.009-2.578v11.406l-11.009,2.181Z" transform="translate(-1230.475 -139.97)" fill="#85a5ff"/>
    </g>
    <path id="Path_493" data-name="Path 493" d="M-3641.707,949H-3496l135.386,61.742" transform="translate(4853 -660)" fill="none" stroke="#3964e6" stroke-width="1" opacity="0.24"/>
    <path id="Path_494" data-name="Path 494" d="M-3641.707,949H-3496l86.089,49.666" transform="translate(4847 -648)" fill="none" stroke="#3964e6" stroke-width="1" opacity="0.24"/>
    <path id="Path_495" data-name="Path 495" d="M-4002.4,1010.666l33.35-33.35h111.45L-3674.4,797.6h115.2l42.475-45.675" transform="translate(4825 -660)" fill="none" stroke="#3964e6" stroke-width="1" opacity="0.24"/>
    <path id="Path_496" data-name="Path 496" d="M-3793,751l27.239,27.239H-3562.4L-3535.161,751" transform="translate(4816 -659)" fill="none" stroke="#3964e6" stroke-width="1" opacity="0.24"/>
  </g>
</svg>
