<svg xmlns="http://www.w3.org/2000/svg" width="120" height="120" viewBox="0 0 120 120">
  <g id="deccide-rules" transform="translate(-872.5 -191)">
    <circle id="Ellipse_42" data-name="Ellipse 42" cx="60" cy="60" r="60" transform="translate(872.5 191)" fill="#fff"/>
    <g id="Group_465" data-name="Group 465" transform="matrix(0.985, -0.174, 0.174, 0.985, -28.989, 163.715)">
      <g id="Rectangle_860" data-name="Rectangle 860" transform="translate(908 220.468)" fill="#f5f8ff" stroke="#85a5ff" stroke-width="2">
        <rect width="47" height="64" rx="6" stroke="none"/>
        <rect x="1" y="1" width="45" height="62" rx="5" fill="none"/>
      </g>
      <path id="Path_168" data-name="Path 168" d="M-2808.191,3550.36h16.27" transform="translate(3741.193 -3317.08)" fill="none" stroke="#85a5ff" stroke-width="2"/>
      <path id="Path_169" data-name="Path 169" d="M-2808.191,3550.36h16.27" transform="translate(3741.193 -3299.888)" fill="none" stroke="#85a5ff" stroke-width="2"/>
      <path id="Path_170" data-name="Path 170" d="M-2808.191,3550.36h16.27" transform="translate(3741.193 -3280.548)" fill="none" stroke="#85a5ff" stroke-width="2"/>
      <g id="Group_450" data-name="Group 450" transform="translate(914.447 262.979)">
        <g id="Rectangle_863" data-name="Rectangle 863" transform="translate(-0.447 0.489)" fill="#3359cc" stroke="#3359cc" stroke-width="1">
          <rect width="12" height="11" stroke="none"/>
          <rect x="0.5" y="0.5" width="11" height="10" fill="none"/>
        </g>
        <path id="Path_171" data-name="Path 171" d="M-2819.606,3574.7l2.187,2.182,4.22-4.22" transform="translate(2822.246 -3568.61)" fill="none" stroke="#fff" stroke-width="2"/>
      </g>
      <g id="Group_453" data-name="Group 453" transform="translate(914.447 245.787)">
        <g id="Rectangle_863-2" data-name="Rectangle 863" transform="translate(-0.447 -0.319)" fill="#3359cc" stroke="#3359cc" stroke-width="1">
          <rect width="12" height="12" stroke="none"/>
          <rect x="0.5" y="0.5" width="11" height="11" fill="none"/>
        </g>
        <path id="Path_171-2" data-name="Path 171" d="M-2819.606,3574.7l2.187,2.182,4.22-4.22" transform="translate(2822.246 -3568.61)" fill="none" stroke="#fff" stroke-width="2"/>
      </g>
      <g id="Group_452" data-name="Group 452" transform="translate(914.447 228.596)">
        <g id="Rectangle_863-3" data-name="Rectangle 863" transform="translate(-0.447 -0.128)" fill="#fff" stroke="#3359cc" stroke-width="1">
          <rect width="12" height="12" stroke="none"/>
          <rect x="0.5" y="0.5" width="11" height="11" fill="none"/>
        </g>
      </g>
    </g>
  </g>
</svg>
