<svg xmlns="http://www.w3.org/2000/svg" width="120" height="120" viewBox="0 0 120 120">
  <g id="decide-name" transform="translate(-233 -191)">
    <circle id="Ellipse_44" data-name="Ellipse 44" cx="60" cy="60" r="60" transform="translate(233 191)" fill="#fff"/>
    <path id="Union_2" data-name="Union 2" d="M3738.448-3289.552v-1.9h-1.9A1.551,1.551,0,0,1,3735-3293a1.551,1.551,0,0,1,1.552-1.552h1.9v-1.9A1.552,1.552,0,0,1,3740-3298a1.552,1.552,0,0,1,1.552,1.552v1.9h1.9A1.552,1.552,0,0,1,3745-3293a1.552,1.552,0,0,1-1.552,1.552h-1.9v1.9A1.552,1.552,0,0,1,3740-3288,1.552,1.552,0,0,1,3738.448-3289.552Z" transform="translate(-3474 3557)" fill="#3359cc"/>
    <g id="Rectangle_856" data-name="Rectangle 856" transform="translate(277 221)" fill="#f5f8ff" stroke="#85a5ff" stroke-width="2">
      <rect width="44" height="60" rx="6" stroke="none"/>
      <rect x="1" y="1" width="42" height="58" rx="5" fill="none"/>
    </g>
    <g id="Rectangle_857" data-name="Rectangle 857" transform="translate(285 245)" fill="#fff" stroke="#3359cc" stroke-width="2">
      <rect width="51" height="16" rx="8" stroke="none"/>
      <rect x="1" y="1" width="49" height="14" rx="7" fill="none"/>
    </g>
    <text id="_" data-name="|" transform="translate(295.5 255)" fill="#3359cc" font-size="7" font-family="OpenSans-Regular, Open Sans"><tspan x="-1.928" y="0">|</tspan></text>
    <path id="Union_1" data-name="Union 1" d="M3743.276-3277.724v-4.552h-4.552A3.724,3.724,0,0,1,3735-3286a3.724,3.724,0,0,1,3.725-3.724h4.552v-4.552A3.724,3.724,0,0,1,3747-3298a3.724,3.724,0,0,1,3.723,3.725v4.552h4.552A3.724,3.724,0,0,1,3759-3286a3.724,3.724,0,0,1-3.724,3.724h-4.552v4.552A3.724,3.724,0,0,1,3747-3274,3.724,3.724,0,0,1,3743.276-3277.724Z" transform="translate(-3469 3508)" fill="#3359cc"/>
  </g>
</svg>
