<svg xmlns="http://www.w3.org/2000/svg" width="78" height="78" viewBox="0 0 78 78">
  <g id="ic-address" transform="translate(-5665 -1535)">
    <g id="Group_639" data-name="Group 639" transform="translate(19 -11)">
      <g id="Path_262" data-name="Path 262" transform="translate(5664 1560)" fill="#f5f8ff">
        <path d="M 21.50007629394531 49.69307327270508 C 19.92837333679199 48.3525390625 15.67603969573975 44.62018203735352 11.47286987304688 40.01139831542969 C 4.6214599609375 32.49884033203125 1 26.09770011901855 1 21.5 C 1 18.73208045959473 1.541880011558533 16.0474796295166 2.610579967498779 13.52077960968018 C 3.64303994178772 11.07977962493896 5.121300220489502 8.887319564819336 7.004310131072998 7.004310131072998 C 8.887319564819336 5.121300220489502 11.07977962493896 3.64303994178772 13.52077960968018 2.610579967498779 C 16.0474796295166 1.541880011558533 18.73208045959473 1 21.5 1 C 24.26791954040527 1 26.9525203704834 1.541880011558533 29.47921943664551 2.610579967498779 C 31.92021942138672 3.64303994178772 34.11267852783203 5.121300220489502 35.99568939208984 7.004310131072998 C 37.87870025634766 8.887319564819336 39.35696029663086 11.07977962493896 40.38941955566406 13.52077960968018 C 41.4581184387207 16.0474796295166 42 18.73208045959473 42 21.5 C 42 26.10145950317383 38.37306976318359 32.50859832763672 31.51129913330078 40.02875900268555 C 27.30970573425293 44.63350677490234 23.06908988952637 48.35509872436523 21.50007629394531 49.69307327270508 Z" stroke="none"/>
        <path d="M 21.5 2 C 18.86664009094238 2 16.31310081481934 2.515300750732422 13.91032981872559 3.531589508056641 C 11.58852958679199 4.513629913330078 9.502910614013672 5.919929504394531 7.711418151855469 7.711418151855469 C 5.919929504394531 9.502910614013672 4.513629913330078 11.58853149414063 3.531589508056641 13.91033172607422 C 2.515300750732422 16.3130989074707 2 18.86663818359375 2 21.5 C 2 23.83286094665527 3.02880859375 26.71371078491211 5.057868957519531 30.06253051757813 C 6.768779754638672 32.88629150390625 9.170391082763672 36.00104141235352 12.19598960876465 39.32028198242188 C 15.88201713562012 43.36405181884766 19.61072540283203 46.73056793212891 21.50025939941406 48.37338638305664 C 23.38270568847656 46.7371940612793 27.09092712402344 43.38965225219727 30.77259063720703 39.35472869873047 C 33.80617904663086 36.03007888793945 36.21451950073242 32.91006088256836 37.93072128295898 30.08135032653809 C 39.96735000610352 26.72451972961426 41 23.83732986450195 41 21.5 C 41 18.86663818359375 40.48469924926758 16.3130989074707 39.46841049194336 13.91033172607422 C 38.48637008666992 11.58853149414063 37.08007049560547 9.502910614013672 35.28858184814453 7.711418151855469 C 33.49708938598633 5.919929504394531 31.41147041320801 4.513629913330078 29.08967018127441 3.531589508056641 C 26.68689918518066 2.515300750732422 24.13335990905762 2 21.5 2 M 21.5 0 C 33.37411880493164 0 43 9.625881195068359 43 21.5 C 43 33.37412261962891 21.5 51 21.5 51 C 21.5 51 0 33.37412261962891 0 21.5 C 0 9.625881195068359 9.625881195068359 0 21.5 0 Z" stroke="none" fill="#46484d"/>
      </g>
      <circle id="Ellipse_62" data-name="Ellipse 62" cx="6.5" cy="6.5" r="6.5" transform="translate(5679 1575)" fill="#46484d"/>
    </g>
    <g id="icon-bg-boundary" transform="translate(5665 1535)">
      <rect id="Rectangle_1088" data-name="Rectangle 1088" width="78" height="78" fill="none" opacity="0.32"/>
    </g>
  </g>
</svg>
