<svg id="ic-google" xmlns="http://www.w3.org/2000/svg" width="19.58" height="20" viewBox="0 0 19.58 20">
  <g id="Group_880" data-name="Group 880">
    <path id="Path_532" data-name="Path 532" d="M16.692,10.211a10.3,10.3,0,0,0-5.656,4.941,8.325,8.325,0,0,0-.845,2.535,10,10,0,0,0,.845,6.436,9.591,9.591,0,0,0,2.731,3.316,9.159,9.159,0,0,0,3.641,1.82,10.312,10.312,0,0,0,5.071.065,8.885,8.885,0,0,0,6.631-6.306,11.094,11.094,0,0,0,.26-5.266H20.008v3.9h5.4a4.538,4.538,0,0,1-2.015,3.056,5.4,5.4,0,0,1-2.21.845,7.466,7.466,0,0,1-2.405,0,5.626,5.626,0,0,1-2.21-.975,5.97,5.97,0,0,1-2.275-3.056,5.742,5.742,0,0,1,0-3.9,6.687,6.687,0,0,1,1.43-2.34,5.24,5.24,0,0,1,2.991-1.625,5.6,5.6,0,0,1,2.926.13,6.391,6.391,0,0,1,2.145,1.235L25.6,13.2l.975-.975a10.194,10.194,0,0,0-3.186-2.015A10.718,10.718,0,0,0,16.692,10.211Z" transform="translate(-9.989 -9.675)" fill="#fff"/>
    <g id="Group_876" data-name="Group 876" transform="translate(1.048 0.008)">
      <path id="Path_533" data-name="Path 533" d="M17.256,10.216a10.278,10.278,0,0,1,6.7.065A9.144,9.144,0,0,1,27.138,12.3l-.975.975-1.82,1.82A4.774,4.774,0,0,0,22.2,13.856a6.333,6.333,0,0,0-2.926-.13,6.754,6.754,0,0,0-2.991,1.625,5.852,5.852,0,0,0-1.43,2.34c-1.105-.845-2.145-1.69-3.251-2.535A10.3,10.3,0,0,1,17.256,10.216Z" transform="translate(-11.6 -9.687)" fill="#ea4335"/>
    </g>
    <g id="Group_877" data-name="Group 877" transform="translate(0 5.477)">
      <path id="Path_534" data-name="Path 534" d="M10.191,20.635a12.9,12.9,0,0,1,.845-2.535c1.105.845,2.145,1.69,3.251,2.535a5.742,5.742,0,0,0,0,3.9c-1.105.845-2.145,1.69-3.251,2.535A10.057,10.057,0,0,1,10.191,20.635Z" transform="translate(-9.989 -18.1)" fill="#fbbc05"/>
    </g>
    <g id="Group_878" data-name="Group 878" transform="translate(9.954 8.078)">
      <path id="Path_535" data-name="Path 535" d="M25.3,22.1h9.362a11.094,11.094,0,0,1-.26,5.266,9.267,9.267,0,0,1-2.535,4.161c-1.04-.845-2.08-1.625-3.186-2.47A4.939,4.939,0,0,0,30.7,26H25.3Q25.3,24.05,25.3,22.1Z" transform="translate(-25.3 -22.1)" fill="#4285f4"/>
    </g>
    <g id="Group_879" data-name="Group 879" transform="translate(1.048 11.914)">
      <path id="Path_536" data-name="Path 536" d="M11.6,30.535c1.105-.845,2.145-1.69,3.251-2.535a5.97,5.97,0,0,0,2.275,3.056,6.754,6.754,0,0,0,2.21.975,7.462,7.462,0,0,0,2.405,0,6.506,6.506,0,0,0,2.21-.845c1.04.845,2.08,1.625,3.186,2.47a9.556,9.556,0,0,1-4.1,2.145,10.292,10.292,0,0,1-5.071-.065,10.1,10.1,0,0,1-3.641-1.82A12.26,12.26,0,0,1,11.6,30.535Z" transform="translate(-11.6 -28)" fill="#34a853"/>
    </g>
  </g>
</svg>
