<svg xmlns="http://www.w3.org/2000/svg" width="78" height="78" viewBox="0 0 78 78">
  <g id="ic-preprocess-scan" transform="translate(-30 6.505)">
    <g id="Group_621" data-name="Group 621" transform="translate(45 -0.505)">
      <g id="Rectangle_864" data-name="Rectangle 864" fill="#f5f8ff" stroke="#46484d" stroke-width="2">
        <rect width="48" height="65.455" rx="6" stroke="none"/>
        <rect x="1" y="1" width="46" height="63.455" rx="5" fill="none"/>
      </g>
      <g id="Group_454" data-name="Group 454" transform="translate(9.915 10.609)">
        <path id="Path_176" data-name="Path 176" d="M-2808.192,3550.36h8.886" transform="translate(2808.192 -3547.741)" fill="none" stroke="#46484d" stroke-width="2"/>
        <path id="Path_179" data-name="Path 179" d="M-2808.192,3550.36h14.054" transform="translate(2808.192 -3524.439)" fill="none" stroke="#46484d" stroke-width="2"/>
        <path id="Path_177" data-name="Path 177" d="M-2808.192,3550.36h8.886" transform="translate(2808.192 -3540.648)" fill="none" stroke="#46484d" stroke-width="2"/>
        <path id="Path_180" data-name="Path 180" d="M-2808.192,3550.36h27.753" transform="translate(2808.192 -3517.345)" fill="none" stroke="#46484d" stroke-width="2"/>
        <path id="Path_178" data-name="Path 178" d="M-2808.192,3550.36h20.712" transform="translate(2808.192 -3532.667)" fill="none" stroke="#46484d" stroke-width="2"/>
        <path id="Path_181" data-name="Path 181" d="M-2808.192,3550.36h24.834" transform="translate(2808.192 -3509.365)" fill="none" stroke="#46484d" stroke-width="2"/>
        <g id="Rectangle_865" data-name="Rectangle 865" transform="translate(14.054)" fill="#fff" stroke="#46484d" stroke-width="1">
          <rect width="13.316" height="13.316" stroke="none"/>
          <rect x="0.5" y="0.5" width="12.316" height="12.316" fill="none"/>
        </g>
        <g id="Rectangle_1069" data-name="Rectangle 1069" transform="translate(14.085)" fill="#fff" stroke="#46484d" stroke-width="1">
          <rect width="13.668" height="13.316" stroke="none"/>
          <rect x="0.5" y="0.5" width="12.668" height="12.316" fill="none"/>
        </g>
        <g id="Rectangle_1070" data-name="Rectangle 1070" transform="translate(14.085 29)" fill="#fff" stroke="#46484d" stroke-width="1">
          <rect width="13.668" height="7.316" stroke="none"/>
          <rect x="0.5" y="0.5" width="12.668" height="6.316" fill="none"/>
        </g>
      </g>
    </g>
    <g id="icon-bg-boundary" transform="translate(30 -6.505)">
      <rect id="Rectangle_1088" data-name="Rectangle 1088" width="78" height="78" fill="none" opacity="0.32"/>
    </g>
  </g>
</svg>
