<svg xmlns="http://www.w3.org/2000/svg" width="55.064" height="52.59" viewBox="0 0 55.064 52.59"><g transform="translate(-1226.964 -227.888)"><g transform="translate(1226.964 239.112) rotate(-19)"><rect width="30.532" height="41.634" rx="6" transform="translate(0 0)" fill="#f5f8ff"/><g transform="translate(6.477 8.576)"><path d="M0,0H17.355" transform="translate(0 0)" fill="none" stroke="#85a5ff" stroke-width="2"/><path d="M0,0H17.355" transform="translate(0 14.572)" fill="none" stroke="#85a5ff" stroke-width="2"/><path d="M0,0H17.355" transform="translate(0 4.436)" fill="none" stroke="#85a5ff" stroke-width="2"/><path d="M0,0H17.355" transform="translate(0 19.008)" fill="none" stroke="#85a5ff" stroke-width="2"/><path d="M0,0H17.355" transform="translate(0 9.427)" fill="none" stroke="#85a5ff" stroke-width="2"/><path d="M0,0H17.355" transform="translate(0 23.998)" fill="none" stroke="#85a5ff" stroke-width="2"/></g></g><g transform="translate(1243.462 227.888)"><g transform="translate(0 0)" fill="#f5f8ff" stroke="#3359cc" stroke-width="2"><rect width="38.566" height="52.59" rx="6" stroke="none"/><rect x="1" y="1" width="36.566" height="50.59" rx="5" fill="none"/></g><g transform="translate(8.182 8.765)"><path d="M-2808.191,3550.36h7.019" transform="translate(2808.191 -3548.291)" fill="none" stroke="#85a5ff" stroke-width="2"/><path d="M-2808.191,3550.36h21.921" transform="translate(2808.191 -3529.885)" fill="none" stroke="#85a5ff" stroke-width="2"/><path d="M-2808.191,3550.36h7.019" transform="translate(2808.191 -3542.688)" fill="none" stroke="#85a5ff" stroke-width="2"/><path d="M-2808.191,3550.36h21.921" transform="translate(2808.191 -3524.282)" fill="none" stroke="#85a5ff" stroke-width="2"/><path d="M-2808.191,3550.36h21.921" transform="translate(2808.191 -3536.384)" fill="none" stroke="#85a5ff" stroke-width="2"/><path d="M-2808.191,3550.36h21.921" transform="translate(2808.191 -3517.978)" fill="none" stroke="#85a5ff" stroke-width="2"/><g transform="translate(11.102)" fill="#fff" stroke="#85a5ff" stroke-width="1"><rect width="10.518" height="10.518" stroke="none"/><rect x="0.5" y="0.5" width="9.518" height="9.518" fill="none"/></g></g></g></g></svg>