<?xml version="1.0" encoding="utf-8"?>
<!-- Generator: Adobe Illustrator 24.1.1, SVG Export Plug-In . SVG Version: 6.00 Build 0)  -->
<svg version="1.1" id="Layer_1" width="100px" xmlns="http://www.w3.org/2000/svg" xmlns:xlink="http://www.w3.org/1999/xlink" x="0px" y="0px"
	 viewBox="0 0 81 21.7" style="enable-background:new 0 0 81 21.7;" xml:space="preserve">
<style type="text/css">
	.st0{enable-background:new    ;}
	.st1{fill:#3359cc;}
</style>
<g id="Group_859" transform="translate(3746.154 -1276.846)">
	<g class="st0">
		<path class="st1" d="M-3735.2,1296.8l-7-13.5v14.9h-3.9V1278h5.4l5.6,10.9l5.6-10.9h5.4v20.3h-4v-14.9L-3735.2,1296.8z"/>
		<path class="st1" d="M-3717,1283.2v8.8c0,1,0.3,1.7,0.9,2.3s1.3,0.9,2.3,0.9c0.7,0,1.3-0.1,1.8-0.4c0.5-0.3,1-0.6,1.3-1.1v-10.5h4
			v15.1h-4v-1.2c-0.6,0.5-1.2,0.9-1.9,1.1c-0.7,0.3-1.5,0.4-2.3,0.4c-1.7,0-3.2-0.6-4.3-1.7s-1.7-2.6-1.7-4.3v-9.4H-3717z"/>
		<path class="st1" d="M-3703.6,1298.3v-15.1h4v1.2c0.6-0.5,1.2-0.9,1.9-1.1c0.7-0.3,1.5-0.4,2.3-0.4c1.7,0,3.2,0.6,4.3,1.7
			c1.1,1.1,1.7,2.6,1.7,4.3v9.4h-4v-8.8c0-0.9-0.3-1.7-0.9-2.3c-0.6-0.6-1.3-0.9-2.3-0.9c-0.7,0-1.3,0.1-1.8,0.4
			c-0.5,0.3-1,0.6-1.3,1.1v10.5H-3703.6z"/>
		<path class="st1" d="M-3684.5,1281.4c-0.6,0-1.2-0.2-1.6-0.7c-0.4-0.4-0.7-1-0.7-1.6c0-0.6,0.2-1.2,0.7-1.6c0.4-0.4,1-0.7,1.6-0.7
			s1.2,0.2,1.6,0.7c0.4,0.4,0.7,1,0.7,1.6c0,0.6-0.2,1.2-0.7,1.6C-3683.3,1281.1-3683.9,1281.4-3684.5,1281.4z M-3682.5,1283.2v15.1
			h-4v-15.1H-3682.5z"/>
		<path class="st1" d="M-3679.4,1298.3v-15.1h4v1.2c0.6-0.5,1.2-0.9,1.9-1.1c0.7-0.3,1.5-0.4,2.3-0.4c1.7,0,3.2,0.6,4.3,1.7
			s1.7,2.6,1.7,4.3v9.4h-4v-8.8c0-0.9-0.3-1.7-0.9-2.3c-0.6-0.6-1.3-0.9-2.3-0.9c-0.7,0-1.3,0.1-1.8,0.4c-0.5,0.3-1,0.6-1.3,1.1
			v10.5H-3679.4z"/>
	</g>
</g>
</svg>
