<svg xmlns="http://www.w3.org/2000/svg" width="109.389" height="71.222" viewBox="0 0 109.389 71.222"><g transform="translate(-720.095 -259)"><g transform="translate(23.667 -96)"><g transform="translate(720.333 355)" fill="#f5f8ff"><path d="M 59 70.050537109375 L 1 70.050537109375 L 1 5.999998569488525 C 1 3.242988586425781 3.242990016937256 0.9999985694885254 6 0.9999985694885254 L 54 0.9999985694885254 C 56.75701141357422 0.9999985694885254 59 3.242988586425781 59 5.999998569488525 L 59 70.050537109375 Z" stroke="none"/><path d="M 6 2 C 3.794387817382813 2 2 3.794387817382813 2 6 L 2 69.050537109375 L 58 69.050537109375 L 58 6 C 58 3.794387817382813 56.20561218261719 2 54 2 L 6 2 M 6 0 L 54 0 C 57.31371307373047 0 60 2.686294555664063 60 6 L 60 71.050537109375 L 0 71.050537109375 L 0 6 C 0 2.686294555664063 2.686290740966797 0 6 0 Z" stroke="none" fill="#85a5ff"/></g><g transform="translate(-1)"><rect width="5.501" height="5.501" transform="translate(745.333 405)" fill="#3359cc"/><rect width="5.501" height="5.501" transform="translate(738.333 408)" fill="#3359cc"/><rect width="5.501" height="5.501" transform="translate(752.333 405)" fill="#3359cc"/><rect width="5.501" height="5.501" transform="translate(759.333 408)" fill="#3359cc"/></g><g transform="translate(0.023 8)"><rect width="5.501" height="5.501" transform="translate(762.31 369.441)" fill="#3359cc"/><rect width="5.501" height="5.501" transform="translate(733.31 369.441)" fill="#3359cc"/></g><rect width="1.501" height="1.501" transform="translate(787.928 410.19)" fill="#3359cc"/><rect width="1.501" height="1.501" transform="translate(795.928 408.19)" fill="#3359cc"/><rect width="1.501" height="1.501" transform="translate(702.928 412.19)" fill="#3359cc"/><rect width="1.501" height="1.501" transform="translate(708.928 416.19)" fill="#3359cc"/><rect width="3.501" height="3.501" transform="translate(712.333 415.945)" fill="#3359cc"/><rect width="3.501" height="3.501" transform="translate(703.333 418.945)" fill="#3359cc"/><rect width="3.501" height="3.501" transform="translate(784.333 415.945)" fill="#3359cc"/><rect width="3.501" height="3.501" transform="translate(796.333 417.945)" fill="#3359cc"/></g><path d="M5512.959,2131.222h109.389" transform="translate(-4792.864 -1802)" fill="none" stroke="#85a5ff" stroke-width="2"/></g></svg>