<svg id="parser-add" xmlns="http://www.w3.org/2000/svg" width="151.201" height="164" viewBox="0 0 151.201 164">
  <g id="Group_515" data-name="Group 515" transform="translate(-689 -176)">
    <path id="Path_208" data-name="Path 208" d="M58.112-2.2C98.04-2.2,151.2.8,151.2,3.965S112.223,9.4,72.3,9.4,0,6.829,0,3.659,18.184-2.2,58.112-2.2Z" transform="translate(689 330.602)" fill="#f5f8ff"/>
    <g id="Group_502" data-name="Group 502" transform="translate(701.737 175.799)">
      <g id="Group_500" data-name="Group 500" transform="translate(0)">
        <g id="Group_499" data-name="Group 499" transform="translate(0 37.133)" opacity="0.7">
          <g id="Group_501" data-name="Group 501" transform="translate(0 24.755)">
            <rect id="Rectangle_871" data-name="Rectangle 871" width="5" height="5" transform="translate(0.263 66.313)" fill="#85a5ff"/>
            <path id="Union_7" data-name="Union 7" d="M4285.764,58.814v-5.5h5.5v5.5Zm-5.5,0v-5.5h5.5v5.5Z" transform="translate(-4263.072 12.7)" fill="#85a5ff" stroke="rgba(0,0,0,0)" stroke-miterlimit="10" stroke-width="1"/>
            <rect id="Rectangle_874" data-name="Rectangle 874" width="6" height="5" transform="translate(34.263 66.313)" fill="#85a5ff"/>
            <rect id="Rectangle_875" data-name="Rectangle 875" width="5.501" height="5.501" transform="translate(42.977 66.013)" fill="#85a5ff"/>
            <rect id="Rectangle_876" data-name="Rectangle 876" width="5.501" height="5.501" transform="translate(51.573 66.013)" fill="#85a5ff"/>
            <rect id="Rectangle_877" data-name="Rectangle 877" width="5" height="5" transform="translate(69.263 66.313)" fill="#85a5ff"/>
            <rect id="Rectangle_878" data-name="Rectangle 878" width="5.501" height="5.501" transform="translate(77.359 66.013)" fill="#85a5ff"/>
            <rect id="Rectangle_879" data-name="Rectangle 879" width="5.501" height="5.501" transform="translate(85.955 66.013)" fill="#85a5ff"/>
            <rect id="Rectangle_880" data-name="Rectangle 880" width="5" height="5" transform="translate(103.263 66.313)" fill="#85a5ff"/>
            <rect id="Rectangle_881" data-name="Rectangle 881" width="5.501" height="5.501" transform="translate(111.741 66.013)" fill="#85a5ff"/>
            <rect id="Rectangle_882" data-name="Rectangle 882" width="5.501" height="5.501" transform="translate(120.336 66.013)" fill="#85a5ff"/>
            <rect id="Rectangle_883" data-name="Rectangle 883" width="5" height="6" transform="translate(0.263 57.313)" fill="#85a5ff"/>
            <rect id="Rectangle_884" data-name="Rectangle 884" width="5.501" height="5.501" transform="translate(8.595 57.761)" fill="#85a5ff"/>
            <rect id="Rectangle_885" data-name="Rectangle 885" width="5.501" height="5.501" transform="translate(17.191 57.761)" fill="#85a5ff"/>
            <rect id="Rectangle_886" data-name="Rectangle 886" width="5.501" height="5.501" transform="translate(25.786 57.761)" fill="#85a5ff"/>
            <path id="Union_8" data-name="Union 8" d="M4285.764,58.814v-5.5h5.5v5.5Zm-5.5,0v-5.5h5.5v5.5Z" transform="translate(-4242.787 4.448)" fill="#85a5ff" stroke="rgba(0,0,0,0)" stroke-miterlimit="10" stroke-width="1"/>
            <rect id="Rectangle_889" data-name="Rectangle 889" width="5.501" height="5.501" transform="translate(51.573 57.761)" fill="#85a5ff"/>
            <rect id="Rectangle_890" data-name="Rectangle 890" width="5.501" height="5.501" transform="translate(60.168 57.761)" fill="#85a5ff"/>
            <rect id="Rectangle_891" data-name="Rectangle 891" width="5" height="6" transform="translate(69.263 57.313)" fill="#85a5ff"/>
            <rect id="Rectangle_892" data-name="Rectangle 892" width="5.501" height="5.501" transform="translate(85.955 57.761)" fill="#85a5ff"/>
            <rect id="Rectangle_893" data-name="Rectangle 893" width="5.501" height="5.501" transform="translate(94.55 57.761)" fill="#85a5ff"/>
            <rect id="Rectangle_894" data-name="Rectangle 894" width="5.501" height="5.501" transform="translate(111.741 57.761)" fill="#85a5ff"/>
            <rect id="Rectangle_895" data-name="Rectangle 895" width="5.501" height="5.501" transform="translate(120.336 57.761)" fill="#85a5ff"/>
            <rect id="Rectangle_896" data-name="Rectangle 896" width="5.501" height="5.501" transform="translate(8.595 49.51)" fill="#85a5ff"/>
            <rect id="Rectangle_897" data-name="Rectangle 897" width="5.501" height="5.501" transform="translate(17.191 49.51)" fill="#85a5ff"/>
            <rect id="Rectangle_898" data-name="Rectangle 898" width="5.501" height="5.501" transform="translate(25.786 49.51)" fill="#85a5ff"/>
            <rect id="Rectangle_899" data-name="Rectangle 899" width="6" height="6" transform="translate(34.263 49.313)" fill="#85a5ff"/>
            <rect id="Rectangle_900" data-name="Rectangle 900" width="5.501" height="5.501" transform="translate(42.977 49.51)" fill="#85a5ff"/>
            <rect id="Rectangle_901" data-name="Rectangle 901" width="5.501" height="5.501" transform="translate(51.573 49.51)" fill="#85a5ff"/>
            <rect id="Rectangle_902" data-name="Rectangle 902" width="5.501" height="5.501" transform="translate(60.168 49.51)" fill="#85a5ff"/>
            <rect id="Rectangle_903" data-name="Rectangle 903" width="5" height="6" transform="translate(69.263 49.313)" fill="#85a5ff"/>
            <rect id="Rectangle_904" data-name="Rectangle 904" width="5.501" height="5.501" transform="translate(77.359 49.51)" fill="#85a5ff"/>
            <rect id="Rectangle_905" data-name="Rectangle 905" width="5.501" height="5.501" transform="translate(85.955 49.51)" fill="#85a5ff"/>
            <rect id="Rectangle_906" data-name="Rectangle 906" width="5.501" height="5.501" transform="translate(94.55 49.51)" fill="#85a5ff"/>
            <rect id="Rectangle_907" data-name="Rectangle 907" width="5" height="6" transform="translate(103.263 49.313)" fill="#85a5ff"/>
            <rect id="Rectangle_908" data-name="Rectangle 908" width="5" height="5" transform="translate(0.263 41.313)" fill="#85a5ff"/>
            <rect id="Rectangle_909" data-name="Rectangle 909" width="5.501" height="5.501" transform="translate(8.595 41.258)" fill="#85a5ff"/>
            <rect id="Rectangle_910" data-name="Rectangle 910" width="5.501" height="5.501" transform="translate(25.786 41.258)" fill="#85a5ff"/>
            <rect id="Rectangle_911" data-name="Rectangle 911" width="6" height="5" transform="translate(34.263 41.313)" fill="#85a5ff"/>
            <rect id="Rectangle_912" data-name="Rectangle 912" width="5.501" height="5.501" transform="translate(42.977 41.258)" fill="#85a5ff"/>
            <rect id="Rectangle_913" data-name="Rectangle 913" width="5.501" height="5.501" transform="translate(51.573 41.258)" fill="#85a5ff"/>
            <rect id="Rectangle_914" data-name="Rectangle 914" width="5.501" height="5.501" transform="translate(60.168 41.258)" fill="#85a5ff"/>
            <rect id="Rectangle_915" data-name="Rectangle 915" width="5.501" height="5.501" transform="translate(77.359 41.258)" fill="#85a5ff"/>
            <rect id="Rectangle_916" data-name="Rectangle 916" width="5.501" height="5.501" transform="translate(85.955 41.258)" fill="#85a5ff"/>
            <rect id="Rectangle_917" data-name="Rectangle 917" width="5.501" height="5.501" transform="translate(94.55 41.258)" fill="#85a5ff"/>
            <rect id="Rectangle_918" data-name="Rectangle 918" width="5" height="5" transform="translate(103.263 41.313)" fill="#85a5ff"/>
            <rect id="Rectangle_919" data-name="Rectangle 919" width="5.501" height="5.501" transform="translate(8.595 33.007)" fill="#85a5ff"/>
            <rect id="Rectangle_920" data-name="Rectangle 920" width="5.501" height="5.501" transform="translate(17.191 33.007)" fill="#85a5ff"/>
            <rect id="Rectangle_921" data-name="Rectangle 921" width="5.501" height="5.501" transform="translate(25.786 33.007)" fill="#85a5ff"/>
            <rect id="Rectangle_922" data-name="Rectangle 922" width="5.501" height="5.501" transform="translate(51.573 33.007)" fill="#85a5ff"/>
            <rect id="Rectangle_923" data-name="Rectangle 923" width="5" height="5" transform="translate(69.263 33.313)" fill="#85a5ff"/>
            <rect id="Rectangle_924" data-name="Rectangle 924" width="5.501" height="5.501" transform="translate(85.955 33.007)" fill="#85a5ff"/>
            <rect id="Rectangle_925" data-name="Rectangle 925" width="5.501" height="5.501" transform="translate(94.55 33.007)" fill="#85a5ff"/>
            <rect id="Rectangle_926" data-name="Rectangle 926" width="5" height="6" transform="translate(0.263 24.313)" fill="#85a5ff"/>
            <path id="Union_6" data-name="Union 6" d="M4285.764,58.814v-5.5h5.5v5.5Zm-5.5,0v-5.5h5.5v5.5Z" transform="translate(-4271.667 -28.558)" fill="#85a5ff" stroke="rgba(0,0,0,0)" stroke-miterlimit="10" stroke-width="1"/>
            <rect id="Rectangle_929" data-name="Rectangle 929" width="5.501" height="5.501" transform="translate(25.786 24.755)" fill="#85a5ff"/>
            <rect id="Rectangle_930" data-name="Rectangle 930" width="6" height="6" transform="translate(34.263 24.313)" fill="#85a5ff"/>
            <rect id="Rectangle_931" data-name="Rectangle 931" width="5.501" height="5.501" transform="translate(42.977 24.755)" fill="#85a5ff"/>
            <rect id="Rectangle_932" data-name="Rectangle 932" width="5.501" height="5.501" transform="translate(51.573 24.755)" fill="#85a5ff"/>
            <rect id="Rectangle_933" data-name="Rectangle 933" width="5.501" height="5.501" transform="translate(60.168 24.755)" fill="#85a5ff"/>
            <rect id="Rectangle_934" data-name="Rectangle 934" width="5.501" height="5.501" transform="translate(65.669 24.755)" fill="#85a5ff"/>
            <rect id="Rectangle_935" data-name="Rectangle 935" width="5.501" height="5.501" transform="translate(77.359 24.755)" fill="#85a5ff"/>
            <rect id="Rectangle_936" data-name="Rectangle 936" width="5.501" height="5.501" transform="translate(85.955 24.755)" fill="#85a5ff"/>
            <rect id="Rectangle_937" data-name="Rectangle 937" width="5.501" height="5.501" transform="translate(94.55 24.755)" fill="#85a5ff"/>
            <rect id="Rectangle_938" data-name="Rectangle 938" width="5" height="6" transform="translate(103.263 24.313)" fill="#85a5ff"/>
            <rect id="Rectangle_939" data-name="Rectangle 939" width="5.501" height="5.501" transform="translate(111.741 24.755)" fill="#85a5ff"/>
            <rect id="Rectangle_940" data-name="Rectangle 940" width="5.501" height="5.501" transform="translate(120.336 24.755)" fill="#85a5ff"/>
            <rect id="Rectangle_941" data-name="Rectangle 941" width="5" height="6" transform="translate(0.263 16.313)" fill="#85a5ff"/>
            <rect id="Rectangle_942" data-name="Rectangle 942" width="5.501" height="5.501" transform="translate(8.595 16.503)" fill="#85a5ff"/>
            <rect id="Rectangle_943" data-name="Rectangle 943" width="5.501" height="5.501" transform="translate(17.191 16.503)" fill="#85a5ff"/>
            <rect id="Rectangle_944" data-name="Rectangle 944" width="5.501" height="5.501" transform="translate(25.786 16.503)" fill="#85a5ff"/>
            <rect id="Rectangle_945" data-name="Rectangle 945" width="5.501" height="5.501" transform="translate(37.476 16.503)" fill="#85a5ff"/>
            <rect id="Rectangle_946" data-name="Rectangle 946" width="5.501" height="5.501" transform="translate(42.977 16.503)" fill="#85a5ff"/>
            <rect id="Rectangle_947" data-name="Rectangle 947" width="5.501" height="5.501" transform="translate(51.573 16.503)" fill="#85a5ff"/>
            <rect id="Rectangle_948" data-name="Rectangle 948" width="5.501" height="5.501" transform="translate(60.168 16.503)" fill="#85a5ff"/>
            <rect id="Rectangle_949" data-name="Rectangle 949" width="5" height="6" transform="translate(69.263 16.313)" fill="#85a5ff"/>
            <rect id="Rectangle_950" data-name="Rectangle 950" width="6" height="6" transform="translate(74.263 16.313)" fill="#85a5ff"/>
            <rect id="Rectangle_951" data-name="Rectangle 951" width="5.501" height="5.501" transform="translate(85.955 16.503)" fill="#85a5ff"/>
            <rect id="Rectangle_952" data-name="Rectangle 952" width="5.501" height="5.501" transform="translate(94.55 16.503)" fill="#85a5ff"/>
            <rect id="Rectangle_953" data-name="Rectangle 953" width="5" height="6" transform="translate(103.263 16.313)" fill="#85a5ff"/>
            <rect id="Rectangle_954" data-name="Rectangle 954" width="5.501" height="5.501" transform="translate(111.741 16.503)" fill="#85a5ff"/>
            <rect id="Rectangle_955" data-name="Rectangle 955" width="5.501" height="5.501" transform="translate(120.336 16.503)" fill="#85a5ff"/>
            <rect id="Rectangle_956" data-name="Rectangle 956" width="5" height="5" transform="translate(0.263 8.313)" fill="#85a5ff"/>
            <rect id="Rectangle_957" data-name="Rectangle 957" width="5.501" height="5.501" transform="translate(17.191 8.252)" fill="#85a5ff"/>
            <rect id="Rectangle_958" data-name="Rectangle 958" width="5.501" height="5.501" transform="translate(25.786 8.252)" fill="#85a5ff"/>
            <rect id="Rectangle_959" data-name="Rectangle 959" width="6" height="5" transform="translate(34.263 8.313)" fill="#85a5ff"/>
            <rect id="Rectangle_960" data-name="Rectangle 960" width="5.501" height="5.501" transform="translate(42.977 8.252)" fill="#85a5ff"/>
            <rect id="Rectangle_961" data-name="Rectangle 961" width="5.501" height="5.501" transform="translate(51.573 8.252)" fill="#85a5ff"/>
            <rect id="Rectangle_962" data-name="Rectangle 962" width="5.501" height="5.501" transform="translate(60.168 8.252)" fill="#85a5ff"/>
            <rect id="Rectangle_963" data-name="Rectangle 963" width="5" height="5" transform="translate(69.263 8.313)" fill="#85a5ff"/>
            <rect id="Rectangle_964" data-name="Rectangle 964" width="5.501" height="5.501" transform="translate(77.359 8.252)" fill="#85a5ff"/>
            <rect id="Rectangle_965" data-name="Rectangle 965" width="5.501" height="5.501" transform="translate(85.955 8.252)" fill="#85a5ff"/>
            <rect id="Rectangle_966" data-name="Rectangle 966" width="5.501" height="5.501" transform="translate(94.55 8.252)" fill="#85a5ff"/>
            <rect id="Rectangle_967" data-name="Rectangle 967" width="5" height="5" transform="translate(103.263 8.313)" fill="#85a5ff"/>
            <rect id="Rectangle_968" data-name="Rectangle 968" width="5.501" height="5.501" transform="translate(17.191)" fill="#85a5ff"/>
            <rect id="Rectangle_969" data-name="Rectangle 969" width="5.501" height="5.501" transform="translate(51.573)" fill="#85a5ff"/>
            <rect id="Rectangle_970" data-name="Rectangle 970" width="5.501" height="5.501" transform="translate(60.168)" fill="#85a5ff"/>
            <rect id="Rectangle_971" data-name="Rectangle 971" width="5.501" height="5.501" transform="translate(77.359)" fill="#85a5ff"/>
            <rect id="Rectangle_972" data-name="Rectangle 972" width="5.501" height="5.501" transform="translate(94.55)" fill="#85a5ff"/>
            <rect id="Rectangle_973" data-name="Rectangle 973" width="5" height="5" transform="translate(103.263 0.313)" fill="#85a5ff"/>
            <rect id="Rectangle_974" data-name="Rectangle 974" width="5.501" height="5.501" transform="translate(111.741)" fill="#85a5ff"/>
            <rect id="Rectangle_975" data-name="Rectangle 975" width="5.501" height="5.501" transform="translate(120.336)" fill="#85a5ff"/>
          </g>
          <g id="Rectangle_870" data-name="Rectangle 870" transform="translate(33.263 0.068)" fill="#f5f8ff" stroke="#85a5ff" stroke-width="2">
            <rect width="60" height="82" rx="6" stroke="none"/>
            <rect x="1" y="1" width="58" height="80" rx="5" fill="none"/>
          </g>
        </g>
        <path id="Union_3" data-name="Union 3" d="M4.828,11.828V9.172H2.173a2.172,2.172,0,1,1,0-4.344H4.828V2.173a2.173,2.173,0,1,1,4.345,0V4.828h2.655a2.172,2.172,0,1,1,0,4.344H9.173v2.656a2.173,2.173,0,0,1-4.345,0Z" transform="translate(113.263 23.201)" fill="#3053bf"/>
        <path id="Union_4" data-name="Union 4" d="M16.38,33a5,5,0,0,1-5-5V21.621H5a5,5,0,0,1-5-5v-.241a5,5,0,0,1,5-5H11.38V5a5,5,0,0,1,5-5h.24a5,5,0,0,1,5,5V11.38H28a5,5,0,0,1,5,5v.241a5,5,0,0,1-5,5H21.621V28a5,5,0,0,1-5,5Z" transform="translate(5.263 0.201)" fill="#3053bf"/>
      </g>
      <path id="Path_203" data-name="Path 203" d="M1575.576,3537.371h17.832" transform="translate(-1530.775 -3479.349)" fill="none" stroke="#85a5ff" stroke-width="1"/>
      <path id="Path_204" data-name="Path 204" d="M1575.576,3537.371h17.832" transform="translate(-1530.775 -3471.722)" fill="none" stroke="#85a5ff" stroke-width="1"/>
      <path id="Path_205" data-name="Path 205" d="M1575.576,3537.371h17.832" transform="translate(-1530.775 -3464.095)" fill="none" stroke="#85a5ff" stroke-width="1"/>
      <g id="Rectangle_982" data-name="Rectangle 982" transform="translate(67.263 54.201)" fill="#fff" stroke="#85a5ff" stroke-width="1">
        <rect width="15" height="20" stroke="none"/>
        <rect x="0.5" y="0.5" width="14" height="19" fill="none"/>
      </g>
    </g>
    <rect id="Rectangle_985" data-name="Rectangle 985" width="6" height="5" transform="translate(736 279)" fill="#3964e6"/>
    <rect id="Rectangle_986" data-name="Rectangle 986" width="5.501" height="5.501" transform="translate(744.715 278.945)" fill="#3964e6"/>
    <rect id="Rectangle_987" data-name="Rectangle 987" width="5.501" height="5.501" transform="translate(753.31 278.945)" fill="#3964e6"/>
    <rect id="Rectangle_988" data-name="Rectangle 988" width="5.501" height="5.501" transform="translate(761.906 278.945)" fill="#3964e6"/>
    <rect id="Rectangle_989" data-name="Rectangle 989" width="5.501" height="5.501" transform="translate(779.097 278.945)" fill="#3964e6"/>
    <rect id="Rectangle_990" data-name="Rectangle 990" width="5.501" height="5.501" transform="translate(787.692 278.945)" fill="#3964e6"/>
    <rect id="Rectangle_992" data-name="Rectangle 992" width="5.501" height="5.501" transform="translate(753.31 270.693)" fill="#3964e6"/>
    <rect id="Rectangle_993" data-name="Rectangle 993" width="5" height="5" transform="translate(771 271)" fill="#3964e6"/>
    <rect id="Rectangle_994" data-name="Rectangle 994" width="5.501" height="5.501" transform="translate(787.692 270.693)" fill="#3964e6"/>
    <rect id="Rectangle_996" data-name="Rectangle 996" width="6" height="6" transform="translate(736 262)" fill="#3964e6"/>
    <rect id="Rectangle_997" data-name="Rectangle 997" width="5.501" height="5.501" transform="translate(744.715 262.441)" fill="#3964e6"/>
    <rect id="Rectangle_998" data-name="Rectangle 998" width="5.501" height="5.501" transform="translate(753.31 262.441)" fill="#3964e6"/>
    <path id="Union_5" data-name="Union 5" d="M4987.5,293.5V288h5.5v5.5Zm-5.5,0V288h5.5v5.5Z" transform="translate(-4220.094 -25.559)" fill="#3964e6" stroke="rgba(0,0,0,0)" stroke-miterlimit="10" stroke-width="1"/>
    <rect id="Rectangle_1001" data-name="Rectangle 1001" width="5.501" height="5.501" transform="translate(779.097 262.441)" fill="#3964e6"/>
    <rect id="Rectangle_1002" data-name="Rectangle 1002" width="5.501" height="5.501" transform="translate(787.692 262.441)" fill="#3964e6"/>
  </g>
  <rect id="Rectangle_1021" data-name="Rectangle 1021" width="5" height="6" transform="translate(116 78)" fill="#3964e6"/>
  <rect id="Rectangle_1022" data-name="Rectangle 1022" width="5.501" height="5.501" transform="translate(29.928 78.19)" fill="#3964e6"/>
  <rect id="Rectangle_1023" data-name="Rectangle 1023" width="5.501" height="5.501" transform="translate(21.333 102.945)" fill="#3964e6"/>
</svg>
