<svg xmlns="http://www.w3.org/2000/svg" width="375" height="173" viewBox="0 0 375 173">
  <g id="parsing" transform="translate(-386 -294)">
    <rect id="Rectangle_1195" data-name="Rectangle 1195" width="375" height="173" transform="translate(386 294)" fill="none"/>
    <g id="parsing-2" data-name="parsing" transform="translate(0 20)">
      <g id="Group_810" data-name="Group 810" transform="translate(1324.306 442)">
        <rect id="Rectangle_1143" data-name="Rectangle 1143" width="6.259" height="6.259" transform="translate(-931.306 -75.346)" fill="#85a5ff" opacity="0.2"/>
        <rect id="Rectangle_1144" data-name="Rectangle 1144" width="6" height="6" transform="translate(-852 -33)" fill="#85a5ff" opacity="0.7"/>
        <rect id="Rectangle_1145" data-name="Rectangle 1145" width="6.259" height="6.259" transform="translate(-818.186 -30.346)" fill="#85a5ff"/>
        <rect id="Rectangle_1146" data-name="Rectangle 1146" width="6.259" height="6.259" transform="translate(-833.526 -30.735)" fill="#85a5ff"/>
        <rect id="Rectangle_1147" data-name="Rectangle 1147" width="6.259" height="6.259" transform="translate(-818.186 -39.735)" fill="#85a5ff"/>
        <rect id="Rectangle_1148" data-name="Rectangle 1148" width="6.259" height="6.259" transform="translate(-874.526 -46.124)" fill="#85a5ff"/>
        <rect id="Rectangle_1149" data-name="Rectangle 1149" width="6" height="6" transform="translate(-831 -50)" fill="#85a5ff"/>
        <rect id="Rectangle_1150" data-name="Rectangle 1150" width="6.259" height="6.259" transform="translate(-910.526 -46.513)" fill="#85a5ff" opacity="0.3"/>
        <rect id="Rectangle_1151" data-name="Rectangle 1151" width="6" height="5" transform="translate(-815 -58)" fill="#85a5ff"/>
        <rect id="Rectangle_1152" data-name="Rectangle 1152" width="6.259" height="6.259" transform="translate(-857.526 -68.901)" fill="#85a5ff" opacity="0.7"/>
        <rect id="Rectangle_1153" data-name="Rectangle 1153" width="6" height="7" transform="translate(-874 -84)" fill="#85a5ff" opacity="0.4"/>
        <rect id="Rectangle_1154" data-name="Rectangle 1154" width="6.259" height="6.259" transform="translate(-814.966 -75.29)" fill="#85a5ff"/>
        <rect id="Rectangle_1155" data-name="Rectangle 1155" width="6.259" height="6.259" transform="translate(-827.966 -86.679)" fill="#85a5ff"/>
        <rect id="Rectangle_1156" data-name="Rectangle 1156" width="6.259" height="6.259" transform="translate(-818.186 -86.679)" fill="#85a5ff"/>
        <rect id="Rectangle_1157" data-name="Rectangle 1157" width="6.259" height="6.259" transform="translate(-892.526 -105.068)" fill="#85a5ff" opacity="0.3"/>
        <rect id="Rectangle_1158" data-name="Rectangle 1158" width="6" height="6" transform="translate(-838 -96)" fill="#85a5ff"/>
        <rect id="Rectangle_1159" data-name="Rectangle 1159" width="6.259" height="6.259" transform="translate(-855.526 -104.457)" fill="#85a5ff"/>
        <rect id="Rectangle_1160" data-name="Rectangle 1160" width="6.259" height="6.259" transform="translate(-837.966 -130.457)" fill="#85a5ff" opacity="0.5"/>
        <rect id="Rectangle_1161" data-name="Rectangle 1161" width="6.259" height="6.259" transform="translate(-818.186 -105.457)" fill="#85a5ff"/>
        <g id="Group_809" data-name="Group 809" transform="translate(-817.599 -133.545)">
          <g id="Group_502" data-name="Group 502" transform="translate(14.792 0)">
            <g id="Group_500" data-name="Group 500" transform="translate(0)">
              <g id="Group_499" data-name="Group 499" transform="translate(0 0)" opacity="0.7">
                <g id="Group_501" data-name="Group 501" transform="translate(0 28.089)">
                  <rect id="Rectangle_871" data-name="Rectangle 871" width="6" height="6" transform="translate(-0.193 75.457)" fill="#85a5ff"/>
                  <path id="Union_7" data-name="Union 7" d="M6.26,6.259V0h6.259V6.259ZM0,6.259V0H6.26V6.259Z" transform="translate(19.261 75.11)" fill="#85a5ff" stroke="rgba(0,0,0,0)" stroke-miterlimit="10" stroke-width="1"/>
                  <rect id="Rectangle_874" data-name="Rectangle 874" width="7" height="6" transform="translate(38.807 75.457)" fill="#85a5ff"/>
                  <rect id="Rectangle_875" data-name="Rectangle 875" width="6.259" height="6.259" transform="translate(48.601 75.11)" fill="#85a5ff"/>
                  <rect id="Rectangle_876" data-name="Rectangle 876" width="6.259" height="6.259" transform="translate(58.381 75.11)" fill="#85a5ff"/>
                  <rect id="Rectangle_877" data-name="Rectangle 877" width="5" height="6" transform="translate(78.807 75.457)" fill="#85a5ff"/>
                  <rect id="Rectangle_878" data-name="Rectangle 878" width="6.259" height="6.259" transform="translate(87.721 75.11)" fill="#85a5ff"/>
                  <rect id="Rectangle_879" data-name="Rectangle 879" width="6.259" height="6.259" transform="translate(97.501 75.11)" fill="#85a5ff"/>
                  <rect id="Rectangle_880" data-name="Rectangle 880" width="6" height="6" transform="translate(116.807 75.457)" fill="#85a5ff"/>
                  <rect id="Rectangle_881" data-name="Rectangle 881" width="6.259" height="6.259" transform="translate(126.841 75.11)" fill="#85a5ff"/>
                  <rect id="Rectangle_882" data-name="Rectangle 882" width="6.259" height="6.259" transform="translate(136.621 75.11)" fill="#85a5ff"/>
                  <rect id="Rectangle_883" data-name="Rectangle 883" width="6" height="7" transform="translate(-0.193 65.457)" fill="#85a5ff"/>
                  <rect id="Rectangle_884" data-name="Rectangle 884" width="6.259" height="6.259" transform="translate(9.481 65.722)" fill="#85a5ff"/>
                  <rect id="Rectangle_885" data-name="Rectangle 885" width="6.259" height="6.259" transform="translate(19.261 65.722)" fill="#85a5ff"/>
                  <rect id="Rectangle_886" data-name="Rectangle 886" width="6.259" height="6.259" transform="translate(29.041 65.722)" fill="#85a5ff"/>
                  <path id="Union_8" data-name="Union 8" d="M6.26,6.259V0h6.259V6.259ZM0,6.259V0H6.26V6.259Z" transform="translate(42.341 65.721)" fill="#85a5ff" stroke="rgba(0,0,0,0)" stroke-miterlimit="10" stroke-width="1"/>
                  <rect id="Rectangle_889" data-name="Rectangle 889" width="6.259" height="6.259" transform="translate(58.381 65.722)" fill="#85a5ff"/>
                  <rect id="Rectangle_890" data-name="Rectangle 890" width="6.259" height="6.259" transform="translate(68.161 65.722)" fill="#85a5ff"/>
                  <rect id="Rectangle_891" data-name="Rectangle 891" width="5" height="7" transform="translate(78.807 65.457)" fill="#85a5ff"/>
                  <rect id="Rectangle_892" data-name="Rectangle 892" width="6.259" height="6.259" transform="translate(97.501 65.722)" fill="#85a5ff"/>
                  <rect id="Rectangle_893" data-name="Rectangle 893" width="6.259" height="6.259" transform="translate(107.281 65.722)" fill="#85a5ff"/>
                  <rect id="Rectangle_894" data-name="Rectangle 894" width="6.259" height="6.259" transform="translate(126.841 65.722)" fill="#85a5ff"/>
                  <rect id="Rectangle_895" data-name="Rectangle 895" width="6.259" height="6.259" transform="translate(136.621 65.722)" fill="#85a5ff"/>
                  <rect id="Rectangle_896" data-name="Rectangle 896" width="6.259" height="6.259" transform="translate(9.481 56.333)" fill="#85a5ff"/>
                  <rect id="Rectangle_897" data-name="Rectangle 897" width="6.259" height="6.259" transform="translate(19.261 56.333)" fill="#85a5ff"/>
                  <rect id="Rectangle_898" data-name="Rectangle 898" width="6.259" height="6.259" transform="translate(29.041 56.333)" fill="#85a5ff"/>
                  <rect id="Rectangle_899" data-name="Rectangle 899" width="7" height="6" transform="translate(38.807 56.457)" fill="#85a5ff"/>
                  <rect id="Rectangle_900" data-name="Rectangle 900" width="6.259" height="6.259" transform="translate(48.601 56.333)" fill="#85a5ff"/>
                  <rect id="Rectangle_901" data-name="Rectangle 901" width="6.259" height="6.259" transform="translate(58.381 56.333)" fill="#85a5ff"/>
                  <rect id="Rectangle_902" data-name="Rectangle 902" width="6.259" height="6.259" transform="translate(68.161 56.333)" fill="#85a5ff"/>
                  <rect id="Rectangle_903" data-name="Rectangle 903" width="5" height="6" transform="translate(78.807 56.457)" fill="#85a5ff"/>
                  <rect id="Rectangle_904" data-name="Rectangle 904" width="6.259" height="6.259" transform="translate(87.721 56.333)" fill="#85a5ff"/>
                  <rect id="Rectangle_905" data-name="Rectangle 905" width="6.259" height="6.259" transform="translate(97.501 56.333)" fill="#85a5ff"/>
                  <rect id="Rectangle_906" data-name="Rectangle 906" width="6.259" height="6.259" transform="translate(107.281 56.333)" fill="#85a5ff"/>
                  <rect id="Rectangle_907" data-name="Rectangle 907" width="6" height="6" transform="translate(116.807 56.457)" fill="#85a5ff"/>
                  <rect id="Rectangle_908" data-name="Rectangle 908" width="6" height="5" transform="translate(-0.193 47.457)" fill="#85a5ff"/>
                  <rect id="Rectangle_909" data-name="Rectangle 909" width="6.259" height="6.259" transform="translate(9.481 46.944)" fill="#85a5ff"/>
                  <rect id="Rectangle_910" data-name="Rectangle 910" width="6.259" height="6.259" transform="translate(29.041 46.944)" fill="#85a5ff"/>
                  <rect id="Rectangle_911" data-name="Rectangle 911" width="7" height="5" transform="translate(38.807 47.457)" fill="#85a5ff"/>
                  <rect id="Rectangle_912" data-name="Rectangle 912" width="6.259" height="6.259" transform="translate(48.601 46.944)" fill="#85a5ff"/>
                  <rect id="Rectangle_913" data-name="Rectangle 913" width="6.259" height="6.259" transform="translate(58.381 46.944)" fill="#85a5ff"/>
                  <rect id="Rectangle_914" data-name="Rectangle 914" width="6.259" height="6.259" transform="translate(68.161 46.944)" fill="#85a5ff"/>
                  <rect id="Rectangle_915" data-name="Rectangle 915" width="6.259" height="6.259" transform="translate(87.721 46.944)" fill="#85a5ff"/>
                  <rect id="Rectangle_916" data-name="Rectangle 916" width="6.259" height="6.259" transform="translate(97.501 46.944)" fill="#85a5ff"/>
                  <rect id="Rectangle_917" data-name="Rectangle 917" width="6.259" height="6.259" transform="translate(107.281 46.944)" fill="#85a5ff"/>
                  <rect id="Rectangle_918" data-name="Rectangle 918" width="6" height="5" transform="translate(116.807 47.457)" fill="#85a5ff"/>
                  <rect id="Rectangle_919" data-name="Rectangle 919" width="6.259" height="6.259" transform="translate(9.481 37.555)" fill="#85a5ff"/>
                  <rect id="Rectangle_920" data-name="Rectangle 920" width="6.259" height="6.259" transform="translate(19.261 37.555)" fill="#85a5ff"/>
                  <rect id="Rectangle_921" data-name="Rectangle 921" width="6.259" height="6.259" transform="translate(29.041 37.555)" fill="#85a5ff"/>
                  <rect id="Rectangle_922" data-name="Rectangle 922" width="6.259" height="6.259" transform="translate(58.381 37.555)" fill="#85a5ff"/>
                  <rect id="Rectangle_923" data-name="Rectangle 923" width="5" height="6" transform="translate(78.807 37.457)" fill="#85a5ff"/>
                  <rect id="Rectangle_924" data-name="Rectangle 924" width="6.259" height="6.259" transform="translate(97.501 37.555)" fill="#85a5ff"/>
                  <rect id="Rectangle_925" data-name="Rectangle 925" width="6.259" height="6.259" transform="translate(107.281 37.555)" fill="#85a5ff"/>
                  <rect id="Rectangle_926" data-name="Rectangle 926" width="6" height="7" transform="translate(-0.193 27.457)" fill="#85a5ff"/>
                  <path id="Union_6" data-name="Union 6" d="M6.26,6.259V0h6.259V6.259ZM0,6.259V0H6.26V6.259Z" transform="translate(9.481 28.166)" fill="#85a5ff" stroke="rgba(0,0,0,0)" stroke-miterlimit="10" stroke-width="1"/>
                  <rect id="Rectangle_929" data-name="Rectangle 929" width="6.259" height="6.259" transform="translate(29.041 28.166)" fill="#85a5ff"/>
                  <rect id="Rectangle_930" data-name="Rectangle 930" width="7" height="7" transform="translate(38.807 27.457)" fill="#85a5ff"/>
                  <rect id="Rectangle_931" data-name="Rectangle 931" width="6.259" height="6.259" transform="translate(48.601 28.166)" fill="#85a5ff"/>
                  <rect id="Rectangle_932" data-name="Rectangle 932" width="6.259" height="6.259" transform="translate(58.381 28.166)" fill="#85a5ff"/>
                  <rect id="Rectangle_933" data-name="Rectangle 933" width="6.259" height="6.259" transform="translate(68.161 28.166)" fill="#85a5ff"/>
                  <rect id="Rectangle_934" data-name="Rectangle 934" width="6.259" height="6.259" transform="translate(74.42 28.166)" fill="#85a5ff"/>
                  <rect id="Rectangle_935" data-name="Rectangle 935" width="6.259" height="6.259" transform="translate(87.721 28.166)" fill="#85a5ff"/>
                  <rect id="Rectangle_936" data-name="Rectangle 936" width="6.259" height="6.259" transform="translate(97.501 28.166)" fill="#85a5ff"/>
                  <rect id="Rectangle_937" data-name="Rectangle 937" width="6.259" height="6.259" transform="translate(107.281 28.166)" fill="#85a5ff"/>
                  <rect id="Rectangle_938" data-name="Rectangle 938" width="6" height="7" transform="translate(116.807 27.457)" fill="#85a5ff"/>
                  <rect id="Rectangle_939" data-name="Rectangle 939" width="6.259" height="6.259" transform="translate(126.841 28.166)" fill="#85a5ff"/>
                  <rect id="Rectangle_940" data-name="Rectangle 940" width="6.259" height="6.259" transform="translate(136.621 28.166)" fill="#85a5ff"/>
                  <rect id="Rectangle_941" data-name="Rectangle 941" width="6" height="7" transform="translate(-0.193 18.457)" fill="#85a5ff"/>
                  <rect id="Rectangle_942" data-name="Rectangle 942" width="6.259" height="6.259" transform="translate(9.481 18.778)" fill="#85a5ff"/>
                  <rect id="Rectangle_943" data-name="Rectangle 943" width="6.259" height="6.259" transform="translate(19.261 18.778)" fill="#85a5ff"/>
                  <rect id="Rectangle_944" data-name="Rectangle 944" width="6.259" height="6.259" transform="translate(29.041 18.778)" fill="#85a5ff"/>
                  <rect id="Rectangle_945" data-name="Rectangle 945" width="6.259" height="6.259" transform="translate(42.342 18.778)" fill="#85a5ff"/>
                  <rect id="Rectangle_946" data-name="Rectangle 946" width="6.259" height="6.259" transform="translate(48.601 18.778)" fill="#85a5ff"/>
                  <rect id="Rectangle_947" data-name="Rectangle 947" width="6.259" height="6.259" transform="translate(58.381 18.778)" fill="#85a5ff"/>
                  <rect id="Rectangle_948" data-name="Rectangle 948" width="6.259" height="6.259" transform="translate(68.161 18.778)" fill="#85a5ff"/>
                  <rect id="Rectangle_949" data-name="Rectangle 949" width="5" height="7" transform="translate(78.807 18.457)" fill="#85a5ff"/>
                  <rect id="Rectangle_950" data-name="Rectangle 950" width="7" height="7" transform="translate(83.807 18.457)" fill="#85a5ff"/>
                  <rect id="Rectangle_951" data-name="Rectangle 951" width="6.259" height="6.259" transform="translate(97.501 18.778)" fill="#85a5ff"/>
                  <rect id="Rectangle_952" data-name="Rectangle 952" width="6.259" height="6.259" transform="translate(107.281 18.778)" fill="#85a5ff"/>
                  <rect id="Rectangle_953" data-name="Rectangle 953" width="6" height="7" transform="translate(116.807 18.457)" fill="#85a5ff"/>
                  <rect id="Rectangle_954" data-name="Rectangle 954" width="6.259" height="6.259" transform="translate(126.841 18.778)" fill="#85a5ff"/>
                  <rect id="Rectangle_955" data-name="Rectangle 955" width="6.259" height="6.259" transform="translate(136.621 18.778)" fill="#85a5ff"/>
                  <rect id="Rectangle_956" data-name="Rectangle 956" width="6" height="6" transform="translate(-0.193 9.457)" fill="#85a5ff"/>
                  <rect id="Rectangle_957" data-name="Rectangle 957" width="6.259" height="6.259" transform="translate(19.261 9.389)" fill="#85a5ff"/>
                  <rect id="Rectangle_958" data-name="Rectangle 958" width="6.259" height="6.259" transform="translate(29.041 9.389)" fill="#85a5ff"/>
                  <rect id="Rectangle_959" data-name="Rectangle 959" width="7" height="6" transform="translate(38.807 9.457)" fill="#85a5ff"/>
                  <rect id="Rectangle_960" data-name="Rectangle 960" width="6.259" height="6.259" transform="translate(48.601 9.389)" fill="#85a5ff"/>
                  <rect id="Rectangle_961" data-name="Rectangle 961" width="6.259" height="6.259" transform="translate(58.381 9.389)" fill="#85a5ff"/>
                  <rect id="Rectangle_962" data-name="Rectangle 962" width="6.259" height="6.259" transform="translate(68.161 9.389)" fill="#85a5ff"/>
                  <rect id="Rectangle_963" data-name="Rectangle 963" width="5" height="6" transform="translate(78.807 9.457)" fill="#85a5ff"/>
                  <rect id="Rectangle_964" data-name="Rectangle 964" width="6.259" height="6.259" transform="translate(87.721 9.389)" fill="#85a5ff"/>
                  <rect id="Rectangle_965" data-name="Rectangle 965" width="6.259" height="6.259" transform="translate(97.501 9.389)" fill="#85a5ff"/>
                  <rect id="Rectangle_966" data-name="Rectangle 966" width="6.259" height="6.259" transform="translate(107.281 9.389)" fill="#85a5ff"/>
                  <rect id="Rectangle_967" data-name="Rectangle 967" width="6" height="6" transform="translate(116.807 9.457)" fill="#85a5ff"/>
                  <rect id="Rectangle_968" data-name="Rectangle 968" width="6.259" height="6.259" transform="translate(19.261)" fill="#85a5ff"/>
                  <rect id="Rectangle_969" data-name="Rectangle 969" width="6.259" height="6.259" transform="translate(58.381)" fill="#85a5ff"/>
                  <rect id="Rectangle_970" data-name="Rectangle 970" width="6.259" height="6.259" transform="translate(68.161)" fill="#85a5ff"/>
                  <rect id="Rectangle_971" data-name="Rectangle 971" width="6.259" height="6.259" transform="translate(87.721)" fill="#85a5ff"/>
                  <rect id="Rectangle_972" data-name="Rectangle 972" width="6.259" height="6.259" transform="translate(107.281)" fill="#85a5ff"/>
                  <rect id="Rectangle_973" data-name="Rectangle 973" width="6" height="6" transform="translate(116.807 0.457)" fill="#85a5ff"/>
                  <rect id="Rectangle_974" data-name="Rectangle 974" width="6.259" height="6.259" transform="translate(126.841)" fill="#85a5ff"/>
                  <rect id="Rectangle_975" data-name="Rectangle 975" width="6.259" height="6.259" transform="translate(136.621)" fill="#85a5ff"/>
                </g>
                <g id="Rectangle_870" data-name="Rectangle 870" transform="translate(37.807 -0.455)" fill="#f5f8ff" stroke="#85a5ff" stroke-width="2">
                  <rect width="68" height="94" rx="6" stroke="none"/>
                  <rect x="1" y="1" width="66" height="92" rx="5" fill="none"/>
                </g>
              </g>
            </g>
            <path id="Path_203" data-name="Path 203" d="M1575.576,3537.371h20.29" transform="translate(-1524.9 -3513.68)" fill="none" stroke="#85a5ff" stroke-width="1"/>
            <path id="Path_204" data-name="Path 204" d="M1575.576,3537.371h20.29" transform="translate(-1524.9 -3505.002)" fill="none" stroke="#85a5ff" stroke-width="1"/>
            <path id="Path_205" data-name="Path 205" d="M1575.576,3537.371h20.29" transform="translate(-1524.9 -3496.324)" fill="none" stroke="#85a5ff" stroke-width="1"/>
            <g id="Rectangle_982" data-name="Rectangle 982" transform="translate(75.807 19.545)" fill="#fff" stroke="#85a5ff" stroke-width="1">
              <rect width="17" height="23" stroke="none"/>
              <rect x="0.5" y="0.5" width="16" height="22" fill="none"/>
            </g>
          </g>
          <rect id="Rectangle_985" data-name="Rectangle 985" width="7" height="5" transform="translate(53.599 75.545)" fill="#3964e6"/>
          <rect id="Rectangle_986" data-name="Rectangle 986" width="6.259" height="6.259" transform="translate(63.393 75.033)" fill="#3964e6"/>
          <rect id="Rectangle_987" data-name="Rectangle 987" width="6.259" height="6.259" transform="translate(73.173 75.033)" fill="#3964e6"/>
          <rect id="Rectangle_988" data-name="Rectangle 988" width="6.259" height="6.259" transform="translate(82.953 75.033)" fill="#3964e6"/>
          <rect id="Rectangle_989" data-name="Rectangle 989" width="6.259" height="6.259" transform="translate(102.513 75.033)" fill="#3964e6"/>
          <rect id="Rectangle_990" data-name="Rectangle 990" width="6.259" height="6.259" transform="translate(112.293 75.033)" fill="#3964e6"/>
          <rect id="Rectangle_992" data-name="Rectangle 992" width="6.259" height="6.259" transform="translate(73.173 65.644)" fill="#3964e6"/>
          <rect id="Rectangle_993" data-name="Rectangle 993" width="5" height="6" transform="translate(93.599 65.545)" fill="#3964e6"/>
          <rect id="Rectangle_994" data-name="Rectangle 994" width="6.259" height="6.259" transform="translate(112.293 65.644)" fill="#3964e6"/>
          <rect id="Rectangle_996" data-name="Rectangle 996" width="7" height="7" transform="translate(53.599 55.545)" fill="#3964e6"/>
          <rect id="Rectangle_997" data-name="Rectangle 997" width="6.259" height="6.259" transform="translate(63.393 56.255)" fill="#3964e6"/>
          <rect id="Rectangle_998" data-name="Rectangle 998" width="6.259" height="6.259" transform="translate(73.173 56.255)" fill="#3964e6"/>
          <path id="Union_5" data-name="Union 5" d="M6.259,6.259V0h6.259V6.259ZM0,6.259V0H6.259V6.259Z" transform="translate(82.953 56.255)" fill="#3964e6" stroke="rgba(0,0,0,0)" stroke-miterlimit="10" stroke-width="1"/>
          <rect id="Rectangle_1001" data-name="Rectangle 1001" width="6.259" height="6.259" transform="translate(102.513 56.255)" fill="#3964e6"/>
          <rect id="Rectangle_1002" data-name="Rectangle 1002" width="6.259" height="6.259" transform="translate(112.293 56.255)" fill="#3964e6"/>
        </g>
      </g>
      <g id="Group_812" data-name="Group 812" transform="translate(665.78 308.543)">
        <rect id="Rectangle_1163" data-name="Rectangle 1163" width="6" height="6" transform="translate(24.293 2.524)" fill="#85a5ff" opacity="0.7"/>
        <rect id="Rectangle_1164" data-name="Rectangle 1164" width="6.259" height="6.259" transform="translate(5.56 0)" fill="#85a5ff"/>
        <rect id="Rectangle_1165" data-name="Rectangle 1165" width="6.259" height="6.259" transform="translate(46.56 15.389)" fill="#85a5ff"/>
        <rect id="Rectangle_1166" data-name="Rectangle 1166" width="6" height="6" transform="translate(3.293 19.524)" fill="#85a5ff"/>
        <rect id="Rectangle_1167" data-name="Rectangle 1167" width="6.259" height="6.259" transform="translate(82.56 15.778)" fill="#85a5ff" opacity="0.3"/>
        <rect id="Rectangle_1168" data-name="Rectangle 1168" width="6.259" height="6.259" transform="translate(29.56 38.166)" fill="#85a5ff" opacity="0.7"/>
        <rect id="Rectangle_1169" data-name="Rectangle 1169" width="6" height="7" transform="translate(46.293 52.524)" fill="#85a5ff" opacity="0.4"/>
        <rect id="Rectangle_1170" data-name="Rectangle 1170" width="6.259" height="6.259" transform="translate(0 55.944)" fill="#85a5ff"/>
        <rect id="Rectangle_1171" data-name="Rectangle 1171" width="6.259" height="6.259" transform="translate(64.56 74.333)" fill="#85a5ff" opacity="0.3"/>
        <rect id="Rectangle_1172" data-name="Rectangle 1172" width="6" height="6" transform="translate(10.293 65.524)" fill="#85a5ff"/>
        <rect id="Rectangle_1173" data-name="Rectangle 1173" width="6.259" height="6.259" transform="translate(27.56 73.722)" fill="#85a5ff"/>
        <rect id="Rectangle_1174" data-name="Rectangle 1174" width="6.259" height="6.259" transform="translate(10 99.722)" fill="#85a5ff" opacity="0.5"/>
      </g>
    </g>
  </g>
</svg>
