<svg id="upload-cloud-2-fill_1_" data-name="upload-cloud-2-fill (1)" xmlns="http://www.w3.org/2000/svg" width="114" height="114" viewBox="0 0 114 114">
  <path id="Path_215" data-name="Path 215" d="M0,0H114V114H0Z" fill="none"/>
  <path id="Path_216" data-name="Path 216" d="M53.276,52.284,73.43,72.433l-6.721,6.721-8.683-8.683V97h-9.5V70.462l-8.683,8.692-6.721-6.721ZM53.276,2A33.254,33.254,0,0,1,86.307,31.42a26.125,26.125,0,0,1-4.527,51.226l0-9.4A28.5,28.5,0,1,0,24.79,72.181l-.015,1.069v9.4a26.125,26.125,0,0,1-4.532-51.224A33.25,33.25,0,0,1,53.276,2Z" transform="translate(3.724 7.5)" fill="#d6e4ff"/>
</svg>
