<svg xmlns="http://www.w3.org/2000/svg" width="120" height="120" viewBox="0 0 120 120">
  <g id="upload" transform="translate(-550 -191)">
    <circle id="Ellipse_41" data-name="Ellipse 41" cx="60" cy="60" r="60" transform="translate(550 191)" fill="#fff"/>
    <g id="upload-cloud-2-fill" transform="translate(580 223)">
      <path id="Path_165" data-name="Path 165" d="M0,0H61V61H0Z" fill="none"/>
    </g>
    <g id="upload-cloud-2-fill-2" data-name="upload-cloud-2-fill" transform="translate(580 223)">
      <path id="Path_166" data-name="Path 166" d="M28.969,2A17.794,17.794,0,0,1,46.644,17.742,13.979,13.979,0,0,1,56.893,32.46c-.6,6.74-1.878,9.519-12.671,12.692a50.062,50.062,0,0,1-30.5,0C2.926,41.98,1.644,39.2,1.048,32.461A13.979,13.979,0,0,1,11.294,17.743,17.792,17.792,0,0,1,28.969,2Z" transform="translate(1.531 3.083)" fill="#f5f8ff" stroke="#85a5ff" stroke-width="2"/>
    </g>
    <path id="Path_173" data-name="Path 173" d="M28.969,28.906,39.753,39.688l-3.6,3.6-4.646-4.646v14.2H26.427v-14.2l-4.646,4.651-3.6-3.6Z" transform="translate(581.531 226.083)" fill="#3359cc"/>
    <path id="Path_174" data-name="Path 174" d="M23.476,28.906l5.291,5.29L27,35.96l-2.28-2.28v6.965H22.229V33.678l-2.28,2.282L18.185,34.2Z" transform="translate(617.024 199.177)" fill="#3359cc"/>
    <path id="Path_175" data-name="Path 175" d="M23.476,28.906l5.291,5.29L27,35.96l-2.28-2.28v6.965H22.229V33.678l-2.28,2.282L18.185,34.2Z" transform="translate(554.024 199.177)" fill="#3359cc"/>
  </g>
</svg>
